<svg width="1840" height="216" viewBox="0 0 1840 216" fill="none" xmlns="http://www.w3.org/2000/svg">
<path d="M1607.05 210.162V5.83789H1659.2V87.5676H1713.79L1765.59 16.6379C1770.81 9.63249 1776.02 5.83789 1785.41 5.83789H1840V44.3676C1821.22 44.3676 1803.84 42.0325 1803.84 42.0325L1771.16 87.5676H1777.07C1799.67 87.5676 1809.75 97.492 1809.75 116.173V172.216C1809.75 172.216 1824.35 167.838 1840 167.838V210.162H1790.28C1767.68 210.162 1757.6 200.238 1757.6 181.557V128.432H1659.2V210.162H1607.05Z" fill="#171717"/>
<path d="M1436.57 216C1363.56 216 1311.4 175.135 1311.4 108C1311.4 40.8649 1363.56 0 1436.57 0C1509.59 0 1561.74 40.8649 1561.74 108C1561.74 175.135 1509.59 216 1436.57 216ZM1363.56 108C1363.56 154.703 1394.85 175.135 1436.57 175.135C1478.29 175.135 1509.59 154.703 1509.59 108C1509.59 61.2973 1478.29 40.8649 1436.57 40.8649C1394.85 40.8649 1363.56 61.2973 1363.56 108Z" fill="#171717"/>
<path d="M1151.36 216C1078.34 216 1026.19 175.135 1026.19 108C1026.19 40.8649 1078.34 0 1151.36 0C1224.37 0 1276.52 40.8649 1276.52 108C1276.52 175.135 1224.37 216 1151.36 216ZM1078.34 108C1078.34 154.703 1109.63 175.135 1151.36 175.135C1193.08 175.135 1224.37 154.703 1224.37 108C1224.37 61.2973 1193.08 40.8649 1151.36 40.8649C1109.63 40.8649 1078.34 61.2973 1078.34 108Z" fill="#171717"/>
<path d="M778.228 210.162V5.83789H894.357C953.812 5.83789 986.147 26.5622 986.147 65.3838C986.147 82.0217 980.584 93.9892 970.153 102.454C986.494 112.087 994.839 127.265 994.839 149.449C994.839 188.27 962.504 210.162 903.049 210.162H778.228ZM830.382 170.465H910.003C932.602 170.465 942.338 164.919 942.338 149.157C942.338 131.643 932.602 125.514 910.003 125.514H830.382V170.465ZM830.382 88.1514H903.049C923.91 88.1514 933.646 83.1892 933.646 65.6757C933.646 49.9136 923.91 45.5352 903.049 45.5352H830.382V88.1514Z" fill="#171717"/>
<path d="M670.594 210.162V5.83789H722.747V210.162H670.594Z" fill="#171717"/>
<path d="M495.281 216C422.266 216 373.59 175.135 373.59 108C373.59 40.8649 425.743 0 498.758 0C564.124 0 612.801 31.2324 620.102 84.6486H567.253C561.342 53.7081 533.875 40.8649 498.758 40.8649C457.035 40.8649 425.743 61.2973 425.743 108C425.743 154.703 453.559 175.135 495.281 175.135C525.878 175.135 554.041 164.335 563.776 140.108H498.758V105.081H620.102V210.162H578.379V169.589C564.819 203.157 532.832 216 495.281 216Z" fill="#171717"/>
<path d="M276.387 210.162V5.83789H328.54V210.162H276.387Z" fill="#171717"/>
<path d="M0 210.162V5.83789H106.045C179.06 5.83789 231.214 40.8649 231.214 108C231.214 175.135 179.06 210.162 106.045 210.162H0ZM52.1535 169.297H106.045C147.768 169.297 179.06 154.703 179.06 108C179.06 61.2974 147.768 46.7028 106.045 46.7028H52.1535V169.297Z" fill="#171717"/>
</svg>
