<svg width="108" height="108" viewBox="0 0 108 108" fill="none" xmlns="http://www.w3.org/2000/svg">
<path fill-rule="evenodd" clip-rule="evenodd" d="M12.0156 36.5638C11.9486 36.6467 11.8863 36.5997 11.8247 36.5562C11.504 36.3267 11.1833 36.0972 10.8665 35.8705C10.819 35.9175 10.7641 35.9465 10.7607 35.9811C10.6911 36.6612 10.8264 37.3517 10.6657 38.0277C10.7862 38.5012 10.75 38.9857 10.746 39.4668C10.7447 39.6942 10.7326 39.9244 10.6911 40.1456C10.665 40.2866 10.5753 40.4137 10.5204 40.534C10.2619 40.5651 10.1648 40.3882 10.124 40.232C9.99606 39.746 9.81326 39.2767 9.86951 38.7424C9.90835 38.3775 9.88491 37.998 9.74697 37.6227C9.63783 37.3262 9.67599 36.973 9.64787 36.6446C9.63983 36.5506 9.62779 36.4573 9.61573 36.3481C9.28964 36.3585 9.13094 36.5804 9.02113 36.7891C8.86712 37.0822 8.60866 37.2163 8.36291 37.378C8.31403 37.4091 8.20623 37.3974 8.15802 37.3607C8.1078 37.3227 8.06226 37.2211 8.07565 37.1623C8.12587 36.9418 8.16136 36.7027 8.27452 36.5168C8.49549 36.1525 8.76266 35.8193 9.01443 35.4758C9.13027 35.3175 9.25348 35.1648 9.36463 35.0224C9.28026 34.8212 9.14232 34.8724 9.0392 34.8987C8.63477 35.0003 8.23769 35.1433 7.82991 35.2235C7.5701 35.2747 7.2949 35.2491 7.02773 35.2408C6.91524 35.2374 6.8389 35.0314 6.9072 34.936C7.19713 34.5282 7.59087 34.2973 8.07298 34.2227C8.36023 34.1784 8.6716 34.2586 8.94145 34.0236C8.68365 33.5792 8.36023 33.1769 8.10712 32.7228C7.87008 32.2963 7.83861 31.8871 7.84598 31.4047C8.22966 31.5152 8.47607 31.7316 8.68699 32.0295C8.916 32.353 9.12224 32.7096 9.50123 32.9018C9.63984 32.5666 9.78179 32.2445 9.62041 31.883C9.66461 31.1752 9.69541 30.466 9.76237 29.761C9.78313 29.5439 9.84942 29.3055 10.1199 29.1735C10.3704 29.4036 10.5726 29.6628 10.5699 30.0513C10.5659 30.7114 10.5679 31.3708 10.5679 32.0309C10.5672 32.1574 10.5237 32.3046 10.5712 32.4076C10.7534 32.796 10.6241 33.2045 10.677 33.6372C10.7453 33.584 10.8277 33.5536 10.8404 33.5045C10.8967 33.284 10.9248 33.0559 10.979 32.8354C11.054 32.5299 11.275 32.3806 11.5549 32.3067C11.7089 32.2659 11.9245 32.3979 11.9506 32.561C11.9915 32.8168 11.9714 33.0677 11.8656 33.3068C11.7852 33.4872 11.7015 33.6669 11.6252 33.8356C11.7651 34.0388 11.9446 34.1038 12.1488 34.1294C12.3437 34.1542 12.5365 34.195 12.732 34.2213C13.0916 34.2704 13.3742 34.4494 13.6065 34.7404C13.4639 34.9588 13.2918 34.7494 13.1385 34.7908C13.0012 34.8282 12.8445 34.7819 12.6972 34.7867C12.5251 34.7922 12.3537 34.8136 12.1823 34.8275C12.0417 34.8392 11.9017 34.8517 11.7551 34.8641C11.7297 35.2159 11.9821 35.397 12.0886 35.6452C12.1937 35.8898 12.4562 36.0668 12.3852 36.3937C12.2526 36.4552 12.1247 36.5154 11.9968 36.5748C12.0377 36.5416 12.1281 36.5237 12.037 36.447C12.029 36.4843 12.0229 36.5237 12.0156 36.5638Z" fill="#171717"/>
<path fill-rule="evenodd" clip-rule="evenodd" d="M97.7484 88.5862C97.6989 88.6484 97.6527 88.6132 97.6065 88.5807C97.3681 88.41 97.1297 88.2392 96.894 88.0706C96.8585 88.1058 96.8177 88.1273 96.815 88.1528C96.7635 88.6588 96.8639 89.1731 96.7447 89.6756C96.8344 90.0281 96.8077 90.3882 96.8043 90.7462C96.803 90.9149 96.7943 91.0863 96.7635 91.2515C96.744 91.3559 96.6777 91.4512 96.6362 91.5404C96.4441 91.5639 96.3717 91.4319 96.3416 91.3158C96.2465 90.9543 96.1106 90.6052 96.1521 90.2078C96.1809 89.9354 96.1642 89.6541 96.061 89.3749C95.98 89.1544 96.0082 88.891 95.9874 88.647C95.9814 88.5765 95.9727 88.5074 95.9633 88.4266C95.7209 88.4342 95.6024 88.5994 95.5213 88.7549C95.4068 88.9726 95.2147 89.0728 95.0312 89.1924C94.995 89.2159 94.9147 89.2069 94.8785 89.1793C94.841 89.1509 94.8076 89.0756 94.8169 89.0314C94.8544 88.8675 94.8812 88.6892 94.9649 88.551C95.1296 88.2807 95.3285 88.0326 95.5153 87.7761C95.6017 87.6586 95.6941 87.546 95.7765 87.4388C95.7135 87.2895 95.6111 87.3275 95.5347 87.3469C95.2334 87.4229 94.9381 87.5294 94.6348 87.5888C94.442 87.6268 94.2371 87.6075 94.0382 87.6013C93.9545 87.5992 93.8976 87.4457 93.9485 87.3745C94.1641 87.0704 94.4574 86.899 94.8156 86.8437C95.0292 86.8105 95.2609 86.8707 95.4618 86.6958C95.2702 86.3654 95.0292 86.0661 94.841 85.7281C94.6649 85.4108 94.6415 85.1067 94.6468 84.7473C94.9321 84.8296 95.1156 84.9906 95.2723 85.2118C95.4423 85.4523 95.5957 85.7177 95.8783 85.8608C95.9814 85.6113 96.0872 85.3714 95.9666 85.1026C95.9994 84.5759 96.0222 84.0485 96.0724 83.5239C96.0878 83.3628 96.1374 83.1852 96.3383 83.087C96.5237 83.2585 96.6751 83.4506 96.6724 83.7395C96.6697 84.2303 96.6711 84.721 96.6711 85.2125C96.6711 85.3065 96.6382 85.4164 96.6737 85.4924C96.809 85.782 96.7132 86.0855 96.7527 86.4069C96.8036 86.3675 96.8652 86.3447 96.8746 86.308C96.9168 86.1442 96.9369 85.9749 96.9777 85.8097C97.0333 85.583 97.198 85.4724 97.4063 85.4164C97.5201 85.386 97.6815 85.4841 97.7009 85.6058C97.731 85.7959 97.7163 85.9832 97.638 86.1608C97.5784 86.2956 97.5161 86.429 97.4592 86.5541C97.563 86.7055 97.6962 86.7538 97.8482 86.7725C97.9935 86.7912 98.1368 86.8216 98.2821 86.8409C98.55 86.8776 98.7595 87.0103 98.9323 87.2273C98.8258 87.3897 98.6979 87.2335 98.5834 87.2646C98.4817 87.2923 98.3645 87.2577 98.2553 87.2612C98.1274 87.2653 98.0002 87.2812 97.8723 87.2916C97.7679 87.2999 97.6634 87.3096 97.5549 87.3192C97.5362 87.5805 97.7237 87.716 97.8027 87.8999C97.881 88.0817 98.0759 88.213 98.0237 88.457C97.9252 88.5026 97.8301 88.5475 97.7344 88.5917C97.7645 88.5669 97.8321 88.5537 97.7645 88.4964C97.7585 88.5268 97.7538 88.5565 97.7484 88.5862Z" fill="#171717"/>
<path fill-rule="evenodd" clip-rule="evenodd" d="M18.2039 26.721C17.7794 26.1425 17.4734 25.6407 17.5584 24.9771C17.5765 24.8361 17.6234 24.6592 17.5644 24.5541C17.2611 24.0136 17.3321 23.4682 17.4352 22.8931C17.4901 22.5849 17.4473 22.2393 17.3743 21.9296C17.241 21.3635 17.1272 20.8043 17.2276 20.2182C17.245 20.1152 17.2517 19.9936 17.2169 19.8996C16.9959 19.3031 17.0729 18.6893 17.0897 18.0776C17.0917 17.978 17.0542 17.8778 17.0254 17.732C16.6364 17.7852 16.3839 18.0506 16.1449 18.2877C15.8195 18.6105 15.5429 18.9858 15.249 19.3418C15.0909 19.5325 14.9537 19.7447 14.7782 19.9155C14.6945 19.9984 14.5445 20.0088 14.3718 20.0717C14.3283 19.415 14.3631 18.8683 14.7809 18.3976C15.0347 18.1121 15.2436 17.7817 15.4525 17.4997C15.415 17.2619 15.2617 17.2412 15.1304 17.2412C14.8519 17.2412 14.572 17.255 14.2941 17.2903C13.5308 17.3871 12.7714 17.3338 12.0148 17.2288C11.8735 17.2101 11.7483 17.058 11.5688 16.9364C11.9478 16.5949 12.288 16.3703 12.7333 16.3579C13.2569 16.3433 13.7859 16.2728 14.3035 16.3254C14.8398 16.3793 15.3233 16.2735 15.8141 16.0579C15.5811 15.5768 15.34 15.0999 15.1184 14.614C15.0461 14.4543 14.9992 14.2732 14.9831 14.0983C14.9751 14.0112 15.0427 13.8758 15.1157 13.8322C15.1894 13.7887 15.3427 13.7907 15.4077 13.844C15.9239 14.2642 16.5105 14.6147 16.8192 15.2575C16.8332 15.2879 16.8694 15.3072 16.8935 15.3307C17.077 15.3107 17.1044 15.1662 17.1024 15.0238C17.0904 14.2691 17.0328 13.5122 17.0629 12.7588C17.087 12.1588 17.0877 11.5602 17.1031 10.9603C17.1171 10.3873 17.2169 9.81635 17.2932 9.2468C17.3167 9.07193 17.3622 8.89083 17.4379 8.73324C17.6207 8.35723 18.1919 8.33304 18.3901 8.69937C18.4892 8.88392 18.5561 9.10165 18.5802 9.31108C18.6666 10.0901 18.6679 10.8732 18.6633 11.6577C18.6579 12.5196 18.6773 13.3829 18.6934 14.2449C18.6954 14.3458 18.7449 14.4453 18.7717 14.5442C19.4761 14.5912 19.91 13.8239 20.6192 13.9145C20.5616 14.4066 20.0547 15.0563 18.8347 16.2044C18.9097 16.2673 18.98 16.3786 19.0516 16.38C20.0754 16.4035 21.0263 16.7912 22.0112 17.0055C22.1003 17.0249 22.1719 17.1285 22.2865 17.2212C21.9624 17.5799 21.5539 17.423 21.201 17.4631C20.8207 17.5052 20.4337 17.479 20.0493 17.4873C19.6777 17.4956 19.3067 17.5087 18.9391 17.5205C18.9391 17.64 18.9103 17.7333 18.9438 17.7741C19.2987 18.2137 19.6543 18.6533 20.0279 19.0757C20.5696 19.6881 21.0363 20.3419 21.2727 21.2253C20.6305 21.1575 20.3567 20.6633 19.9683 20.3558C19.5886 20.0537 19.219 19.7364 18.8487 19.4295C18.6103 19.5318 18.6693 19.7399 18.6854 19.8968C18.8066 21.011 18.7275 22.1225 18.672 23.2353C18.6492 23.6991 18.68 24.1656 18.6827 24.6308C18.6867 25.5294 18.6184 25.8459 18.2039 26.721Z" fill="#171717"/>
<path fill-rule="evenodd" clip-rule="evenodd" d="M93.6894 57.2354C93.9666 57.6377 93.9044 57.9473 93.7356 58.2729C92.9776 59.7361 91.9813 60.9471 90.5195 61.7213C89.6772 62.1671 88.8295 62.6288 88.0702 63.2053C87.3122 63.7817 86.9117 64.645 86.8408 65.6348C86.822 65.8899 86.8508 66.147 86.8535 66.4041C86.8649 67.4036 87.5438 67.9448 88.4994 67.705C88.8214 67.6234 89.1462 67.5425 89.4562 67.4243C89.7569 67.311 90.0414 67.1493 90.3093 67.0193C90.5872 67.264 90.4921 67.5384 90.472 67.772C90.4064 68.5372 90.2945 69.2982 90.2222 70.0627C90.1586 70.7276 90.0033 71.2709 89.3457 71.6337C88.6413 72.0229 88.178 72.7314 87.8572 73.473C87.584 74.1034 87.2097 74.5382 86.595 74.7939C86.291 74.9197 86.0185 75.1257 85.7286 75.2909C85.5859 75.3725 85.4426 75.4927 85.2906 75.51C84.4389 75.6102 83.616 75.8839 82.7495 75.8971C81.9279 75.9088 81.0902 75.8501 80.3142 76.224C80.0376 76.3567 79.7611 76.3477 79.4658 76.3228C78.4279 76.2371 77.4021 76.3567 76.385 76.5744C75.8995 76.6781 75.4268 76.6989 74.9172 76.6194C74.1023 76.4936 73.264 76.4694 72.439 76.497C71.6509 76.524 70.8675 76.5717 70.0787 76.5164C69.8457 76.5005 69.551 76.5413 69.3783 76.6795C69.0442 76.9477 68.708 76.9221 68.3257 76.9193C67.5041 76.9117 66.6631 76.7583 65.8696 77.1309C65.7959 77.1654 65.7029 77.1965 65.6292 77.1813C64.6288 76.9629 63.676 77.399 62.6923 77.4046C62.3622 77.4066 62.0093 77.511 61.7067 77.4239C60.6668 77.124 59.5961 77.0002 58.5368 76.8931C57.6965 76.8088 56.8541 76.5959 55.9709 76.8053C55.4393 76.9311 54.8185 76.833 54.2742 76.6132C53.9065 76.4645 53.5316 76.4355 53.1773 76.5427C52.6912 76.6906 52.2138 76.7659 51.7183 76.5814C51.1089 77.1931 50.5498 77.7536 50.0329 78.2727C50.0972 78.834 50.1574 79.2971 50.2023 79.7623C50.2619 80.3802 50.4601 80.9062 50.9429 81.3278C51.6326 81.9292 52.1683 82.7123 52.9811 83.1713C53.2932 83.8763 54.0291 84.1168 54.4958 84.649C55.0589 85.2925 55.8731 85.5538 56.4979 86.1199C57.0811 86.6473 57.8069 87.0039 58.4524 87.4601C58.733 87.6592 59.0377 87.7504 59.349 87.8672C59.9162 88.0794 60.2704 88.4873 60.3608 89.1736C60.4659 89.9706 60.6534 90.7648 60.8978 91.5285C61.0358 91.9605 61.3525 92.3338 61.6009 92.7264C61.8185 93.0699 61.8413 93.5793 62.3495 93.6823C63.2113 94.7986 64.4929 95.3799 65.4939 96.3179C65.5462 96.3656 65.5509 96.4672 65.6038 96.6178C65.4183 96.6842 65.2362 96.7934 65.048 96.8086C63.8534 96.9033 62.6468 97.119 61.465 97.0208C59.9269 96.8936 58.4169 97.0989 56.8956 97.1425C56.4543 97.1549 56.0807 97.0955 55.7298 96.83C55.2973 96.5045 54.8547 96.1948 54.4221 95.8693C53.1994 94.95 51.804 94.4101 50.3905 93.9125C49.1778 93.4853 47.9404 93.1231 46.7478 92.6448C45.7501 92.2439 44.7772 92.4153 43.8237 92.6552C42.8233 92.9075 41.8537 93.2918 40.9237 93.7756C40.3766 94.0597 39.7833 94.274 39.1887 94.4302C38.8426 94.5207 38.4154 94.5353 38.0872 94.4088C36.6202 93.8454 35.0915 93.4224 33.773 92.4935C33.2695 92.1389 32.7351 91.8313 32.2068 91.4974C32.3106 91.3875 32.3588 91.288 32.4204 91.2776C33.2789 91.1353 34.1386 90.9998 35.0004 90.8761C35.2455 90.8408 35.5026 90.8062 35.7423 90.8456C36.6295 90.9936 37.4685 90.8042 38.3009 90.5221C38.9986 89.7183 38.9986 89.7183 38.9631 88.8882C39.3099 88.6103 39.7217 88.5999 40.1382 88.5985C41.1339 88.5958 42.1303 88.5723 43.126 88.584C44.8716 88.6041 46.488 88.1375 47.9598 87.1892C48.446 86.8761 48.8665 86.4455 49.2742 86.0238C49.4704 85.8213 49.6131 85.531 49.7021 85.2538C49.9586 84.461 49.4758 83.624 48.6669 83.5535C47.8031 83.4781 46.9052 83.3807 46.0675 83.5431C44.7765 83.7933 43.5257 83.6855 42.2501 83.5404C40.6444 83.3565 39.0334 83.2148 37.4237 83.0828C36.9302 83.042 36.43 83.1111 35.9338 83.1014C34.1058 83.0676 32.2939 83.2798 30.4906 83.5397C29.8063 83.6378 29.1407 83.9392 28.4906 84.2094C27.9134 84.4486 27.7734 85.2061 28.1758 85.7045C28.362 85.934 28.5495 86.1738 28.7778 86.3521C29.2023 86.6846 29.6275 87.0399 30.2375 86.8802C30.3795 86.8436 30.5589 86.9335 30.7143 86.9846C30.8208 87.0199 30.9172 87.0897 31.0966 87.1857C29.5867 87.2009 28.1712 87.756 26.7395 87.183C26.2688 86.4627 25.8456 85.6907 25.172 85.1004C24.799 84.7734 24.4837 84.3663 24.185 83.9613C23.5891 83.1498 22.8224 82.4711 22.3865 81.5455C22.4628 81.2179 22.7146 81.1675 22.957 81.1384C23.8281 81.0334 24.6959 81.0645 25.5537 81.2621C25.8369 81.3264 26.1182 81.4059 26.3947 81.4965C27.762 81.9444 29.1481 82.0398 30.5583 81.7502C31.7113 81.8939 32.6354 81.229 33.5875 80.7583C34.4594 80.3277 34.8129 79.418 35.0278 78.4808C35.0747 78.2741 35.0727 78.055 35.0975 77.8435C35.2046 76.9035 34.7058 76.3222 33.771 76.2952C32.4044 76.2551 31.0357 76.2427 29.6711 76.1639C27.9147 76.063 26.2434 75.5522 24.6196 74.8838C24.0444 74.6467 23.5014 74.328 22.9382 74.0557C22.0048 73.6037 21.07 73.1544 20.1313 72.7141C19.4543 72.3962 18.7713 72.0955 18.0026 71.7478C17.7723 71.4547 17.5982 71.04 17.566 70.552C17.5265 69.9534 17.4094 69.3756 17.2058 68.8019C17.0531 68.3727 17.0672 67.8826 16.9888 67.4237C16.8603 66.6661 16.7056 65.9134 16.5844 65.1558C16.5456 64.9098 16.5784 64.6519 16.5784 64.4432C17.0799 64.0153 17.5895 64.0589 18.0569 64.2248C19.463 64.7218 20.8893 65.1738 22.0959 66.1429C22.6436 66.5832 23.2784 66.8749 23.954 67.1188C25.2617 67.5916 26.623 67.5736 27.9575 67.7838C28.5937 67.6144 29.1709 67.9759 29.7902 68.0022C31.1495 68.0589 32.5075 68.0395 33.8654 68.0022C34.0301 67.9973 34.1949 67.9649 34.3562 67.9296C34.9241 67.8059 35.4885 67.669 36.057 67.5495C36.6235 67.4313 37.2248 67.4091 37.7531 67.1949C38.2413 66.9972 38.6564 66.6053 39.097 66.2894C39.2296 66.1947 39.3568 66.082 39.4586 65.9549C39.6929 65.6576 39.8851 65.3217 40.1396 65.0459C40.6813 64.4626 40.8031 63.676 41.0857 62.9765C41.2317 62.6157 41.1654 62.1208 40.8734 61.762C40.5808 61.404 40.3009 61.0259 39.9641 60.7163C38.8499 59.6933 37.7839 58.6226 36.7795 57.4842C35.972 56.5684 35.1417 55.6726 34.296 54.7934C33.8902 54.3704 33.4516 53.9674 32.9822 53.6239C32.1338 53.0052 31.416 52.238 30.6366 51.5399C30.3279 51.2627 29.973 51.0402 29.659 50.7671C28.9948 50.19 28.3453 49.5956 27.6884 49.0101C27.5317 48.8705 27.3844 48.6548 27.2049 48.6182C26.0934 48.388 25.5651 47.3706 24.7616 46.7305C24.339 46.3939 23.9681 45.9868 23.5743 45.6115C23.5141 45.5541 23.4378 45.5057 23.3989 45.4345C22.6021 43.9899 21.7651 42.564 21.5281 40.8712C21.4711 40.4669 21.4879 40.1171 21.733 39.7798C21.8809 39.5752 21.9559 39.3153 22.1093 39.1177C22.5686 38.5253 23.1378 38.02 23.3735 37.2528C23.8556 37.4028 23.9761 37.812 24.1007 38.1293C24.2935 38.6179 24.5453 39.0389 24.8894 39.4204C25.0568 39.605 25.2035 39.8192 25.316 40.0432C25.7057 40.8256 26.311 41.3979 26.9652 41.9315C27.5471 42.4064 28.1912 42.8101 28.5836 43.5026C28.6794 43.6727 28.8776 43.8026 29.0564 43.8959C29.5693 44.1662 30.1036 44.3964 30.6172 44.6652C31.3149 45.0302 32.0702 45.2762 32.6856 45.8154C32.9635 46.0601 33.3157 46.2425 33.6632 46.3697C34.9709 46.8473 36.063 47.7058 37.2154 48.4592C37.6353 48.7336 38.0303 49.0619 38.4756 49.2804C39.2765 49.6723 39.9681 50.2239 40.5715 50.8611C40.9672 51.2786 41.3937 51.5841 41.91 51.7286C42.2984 51.8371 42.5608 52.0535 42.8227 52.3417C43.5967 53.1967 44.5395 53.7987 45.6336 54.0953C46.0468 54.2072 46.4084 54.3621 46.7499 54.615C47.1992 54.9475 47.6752 55.1632 48.2598 54.9613C48.4346 54.9005 48.7004 54.9316 48.8551 55.0332C49.3291 55.3436 49.8742 55.3629 50.3851 55.5198C50.4989 55.5551 50.6402 55.6484 50.7246 55.6097C51.2837 55.3532 51.7591 55.6574 52.2781 55.7797C53.0381 55.9574 53.8282 56.1108 54.5989 56.0811C55.1567 56.0603 55.7412 56.2753 56.2977 55.9864C56.4202 55.9228 56.6211 56.003 56.7811 56.041C57.6777 56.2553 58.5602 56.3278 59.4588 55.9912C59.7957 55.8647 60.1967 55.9028 60.569 55.8938C61.7777 55.8668 62.9588 55.7064 64.1112 55.3007C64.4534 55.1804 64.8438 55.1798 65.2134 55.1659C65.7129 55.1486 66.193 55.0761 66.6785 54.933C67.6347 54.651 68.6049 54.4222 69.5758 54.1996C69.8959 54.1264 70.2347 54.125 70.5662 54.116C71.059 54.1029 71.5572 54.1982 72.0326 53.9473C72.1665 53.8762 72.36 53.8941 72.5201 53.9169C73.0644 53.9944 73.5941 53.9169 74.1251 53.8056C74.324 53.7642 74.5563 53.6958 74.7277 53.7635C75.029 53.8831 75.2781 53.8388 75.562 53.7303C76.0013 53.5623 76.4379 53.563 76.8905 53.7635C77.678 54.1125 78.4125 53.9819 79.1183 53.4635C80.0671 52.764 81.1378 52.2885 82.2266 51.882C83.1506 51.5371 83.9481 51.0388 84.5333 50.2225C84.7409 49.9342 84.9719 49.7331 85.3 49.6108C85.5284 49.5257 85.7808 49.3993 85.9247 49.2119C86.287 48.7426 86.9312 48.8815 87.3189 48.4212C87.6342 48.048 88.1137 47.8212 88.5288 47.5427C88.6279 47.4763 88.7598 47.4604 88.9286 47.4051C89.2018 47.6982 89.0799 48.1288 89.2473 48.4572C89.3993 48.7544 89.5513 49.093 89.562 49.4186C89.5814 49.9861 89.3544 50.5231 88.9165 50.866C88.4947 51.1964 88.2014 51.7079 87.647 51.8565C86.6513 52.9188 85.2947 53.4255 84.1577 54.2701C84.0238 54.3697 83.8811 54.4644 83.7305 54.5321C82.3257 55.1604 80.9999 55.9518 79.5883 56.5753C78.5659 57.0266 77.5387 57.4877 76.5028 57.8955C74.494 58.6848 72.4364 59.3435 70.4021 60.0645C69.3053 60.4529 68.1998 60.8199 67.1231 61.2623C64.7386 62.241 62.3127 63.1016 59.8954 63.987C58.4109 64.5303 56.9713 65.1904 55.7252 66.2196C55.4339 66.4594 55.158 66.7193 54.8748 66.9675C54.7174 67.1043 54.5735 67.3172 54.3953 67.3566C53.79 67.4879 53.5148 67.9497 53.251 68.4425C53.1706 68.5918 53.1184 68.7604 53.0207 68.8952C52.8204 69.1717 52.5975 69.435 52.6778 69.8166C52.7762 70.2852 52.9497 70.711 53.326 71.0241C54.3525 71.8764 55.4935 72.2627 56.8052 71.9192C57.8893 71.6351 58.9808 71.3732 60.0494 71.0372C61.5534 70.5645 63.0626 70.1138 64.5913 69.7295C65.4718 69.5076 66.3189 69.1454 67.1921 68.8835C68.6223 68.4535 70.0653 68.0692 71.4956 67.6393C73.7213 66.9702 75.9537 66.3274 78.146 65.5339C80.1354 64.8151 82.0712 63.9504 84.0968 63.3214C85.5967 62.8548 86.9646 62.0468 88.277 61.1192C89.5439 60.2241 90.6722 59.1631 91.9056 58.2355C92.4299 57.8374 92.9676 57.4358 93.6894 57.2354ZM83.0789 70.5831C83.1084 70.3682 83.1345 70.2002 83.1539 70.0316C83.2751 69.0024 82.9269 68.7383 81.9011 68.533C81.8609 68.5254 81.8181 68.5337 81.7773 68.533C80.7755 68.5088 79.8066 68.6657 78.8638 69.0272C78.3228 69.2346 77.7643 69.3943 77.2119 69.5684C76.3843 69.8297 75.5647 70.0882 74.7639 70.4566C73.9945 70.8112 73.4053 71.4202 72.652 71.7796C72.271 71.9614 72.1049 72.4086 71.9469 72.8074C71.8324 73.0977 71.9275 73.4247 72.1906 73.5961C72.3989 73.7316 72.6238 73.847 72.8528 73.9423C73.8057 74.3453 74.8194 74.2859 75.789 74.1601C76.7573 74.0357 77.7349 73.8041 78.5806 73.2042C78.9181 72.9643 79.3044 72.7804 79.6921 72.6381C80.9188 72.1881 81.948 71.4008 83.0789 70.5831ZM41.2779 72.1065C42.0198 72.7397 42.7517 72.9332 43.578 72.8544C44.0715 72.8074 44.5716 72.8254 45.0685 72.8461C45.7039 72.8731 46.3066 72.7424 46.8777 72.4791C47.4054 72.2358 47.9183 71.9579 48.4265 71.6745C48.7821 71.4755 49.1691 70.7048 49.0265 70.3606C48.7834 69.7724 48.4674 69.1696 47.8279 68.9768C47.1161 68.7611 46.3762 68.6298 45.6397 68.5227C44.8241 68.4045 44.1886 69.1067 43.3757 69.1199C43.1253 69.1233 42.8742 69.3874 42.6338 69.5491C42.4256 69.688 42.2535 69.9058 42.0299 69.9928C41.529 70.1898 41.3402 70.5914 41.2853 71.0801C41.2478 71.4112 41.2779 71.7533 41.2779 72.1065Z" fill="#EEE5DA"/>
<path fill-rule="evenodd" clip-rule="evenodd" d="M102.349 47.9215C102.441 48.1379 102.52 48.2443 102.528 48.3556C102.588 49.2514 102.714 50.1541 102.659 51.0444C102.616 51.7549 102.459 52.5076 102.157 53.1429C101.359 54.8204 100.538 56.4945 99.3108 57.9087C98.8039 58.4941 98.5595 59.2302 98.4156 59.9926C96.7824 61.2119 95.2015 62.4609 93.5496 63.6014C92.3497 64.4308 91.1169 65.2126 89.9183 66.0489C89.6652 66.2259 89.2923 66.2273 88.9695 66.2846C88.7994 66.3143 88.6655 66.2045 88.1031 65.7061C88.1787 65.4573 88.2825 65.1849 88.3421 64.9029C88.4291 64.4924 88.6756 64.238 89.005 64.021C89.8427 63.468 90.6562 62.8756 91.5019 62.3344C92.8813 61.4525 93.8509 60.2124 94.572 58.736C94.8258 58.2183 94.8827 57.6751 94.8392 57.1124C94.8051 56.6714 94.56 56.3867 94.1301 56.3618C93.4585 56.3224 92.8311 56.4475 92.2392 56.8408C90.9837 57.6757 89.8172 58.6331 88.626 59.5565C88.0274 60.0203 87.4408 60.4896 86.7545 60.8131C86.4933 60.9361 86.2677 61.1373 86.0172 61.2873C85.6255 61.5223 85.2419 61.7822 84.8274 61.9653C84.1497 62.2646 83.446 62.4478 82.8132 62.9136C82.2969 63.2945 81.5818 63.3871 80.9537 63.6062C79.7391 64.0272 78.5264 64.455 77.3084 64.8656C75.8956 65.3418 74.4834 65.8222 73.0605 66.2653C71.5579 66.7332 70.0406 67.15 68.534 67.6062C67.1058 68.0382 65.6842 68.4972 64.2586 68.9374C62.5558 69.4641 60.8524 69.9908 59.1456 70.5044C58.4304 70.7187 57.714 70.9343 56.9848 71.0857C56.283 71.2315 55.5826 71.1859 54.9438 70.7788C54.7343 70.6454 54.5106 70.5369 54.2488 70.3924C54.2488 70.1056 54.1812 69.7938 54.2615 69.5305C54.4985 68.7536 54.8601 68.0596 55.4621 67.4797C56.727 66.2625 58.172 65.4165 59.8098 64.8525C61.1042 64.4066 62.3617 63.8468 63.6279 63.3152C66.8158 61.9771 70.0969 60.9306 73.3946 59.9297C75.0994 59.412 76.7815 58.8162 78.4729 58.2536C78.5907 58.2135 78.6979 58.1375 78.8177 58.1071C80.7194 57.6315 82.4248 56.668 84.1584 55.7853C84.8588 55.428 85.6021 55.1176 86.2409 54.6753C87.3605 53.9004 88.5905 53.2479 89.3298 51.9678C89.8146 51.1301 90.4178 50.3829 91.212 49.7781C92.1595 49.0572 92.6704 47.9596 93.0628 46.8308C93.2857 46.1887 93.4625 45.5272 93.6239 44.8658C93.8937 43.7578 93.7953 42.6995 93.3969 41.6061C93.0079 40.5381 92.2988 39.699 91.7925 38.7224C91.3252 37.8197 90.8196 36.9377 90.3301 36.0467C90.0964 35.6223 90.0308 35.1703 90.0683 34.6858C90.1406 33.7685 90.8658 33.2253 91.7129 33.4734C92.1227 33.593 92.4514 33.8086 92.7367 34.1528C93.2201 34.7369 93.7116 35.33 94.2821 35.8152C94.7863 36.2451 95.3963 36.5472 95.9729 36.8789C96.3338 37.0863 96.7174 37.2508 97.0944 37.425C97.2049 37.4768 97.3502 37.5612 97.4433 37.5259C98.0272 37.3061 98.2609 37.6959 98.5019 38.1196C99.7333 40.2879 99.8009 42.4873 98.6646 44.7137C97.9415 46.1293 97.608 47.6623 97.3569 49.2217C97.3228 49.4304 97.3348 49.6489 97.3362 49.8624C97.3422 50.7347 97.5919 51.1073 98.3727 51.4031C99.0463 51.6575 99.5954 51.334 100.083 50.9331C100.639 50.4762 101.034 49.8687 101.373 49.2217C101.608 48.7786 101.815 48.3086 102.349 47.9215Z" fill="#EEE5DA"/>
<path fill-rule="evenodd" clip-rule="evenodd" d="M28.3527 31.1282C28.7076 31.8823 29.0143 32.4815 29.2754 33.1015C29.5942 33.8584 30.0495 34.5102 30.5798 35.1178C30.8296 35.4032 31.0673 35.7018 31.2842 36.0143C31.9411 36.9605 32.8143 37.6697 33.6861 38.3816C34.1086 38.7258 34.5432 39.0562 34.9476 39.4212C36.1663 40.5202 37.5195 41.4346 38.8574 42.3553C40.437 43.4426 42.0621 44.4918 43.872 45.136C45.3579 45.6648 46.831 46.2468 48.3383 46.6898C50.564 47.3437 52.8293 47.8607 55.0905 48.3764C56.4705 48.6909 57.8774 48.7524 59.2862 48.5153C60.1446 48.3708 61.0091 48.263 61.8688 48.1234C62.3985 48.0377 62.9248 47.9243 63.4518 47.8213C63.6138 47.7902 63.7752 47.7246 63.9366 47.7225C65.6581 47.7017 67.2685 47.1875 68.8568 46.564C69.047 46.4894 69.2565 46.4666 69.4561 46.4189C70.7832 46.1002 72.1104 45.7871 73.4342 45.4595C73.8339 45.3607 74.233 45.2432 74.6173 45.0918C75.3894 44.7877 76.1675 44.5174 76.9629 44.2755C77.9011 43.9907 78.8264 43.5926 79.6648 43.0279C80.0779 42.75 80.5413 42.5509 80.9511 42.2675C81.5665 41.8425 82.1544 41.3738 82.755 40.9273C83.2545 40.5554 83.7956 40.2506 84.137 39.6714C84.2971 39.3998 84.5957 39.1737 85.0564 39.2048C86.4967 40.9128 87.6364 42.8537 88.2939 45.0413C88.2075 45.4429 87.929 45.5708 87.6511 45.6316C87.106 45.7505 86.6226 46.0028 86.2168 46.365C85.6831 46.8426 85.0999 47.0728 84.4022 46.9525C84.21 47.1647 84.0299 47.3403 83.8766 47.5379C83.6857 47.784 83.4574 47.9409 83.1541 47.9948C82.5628 48.0999 82.0539 48.3923 81.6341 48.8201C81.3502 49.1097 81.0468 49.2756 80.6471 49.2576C80.084 49.2307 79.6072 49.3565 79.2295 49.8652C79.0072 50.1645 78.6336 50.2972 78.2238 50.2516C77.7919 50.2025 77.3989 50.3629 77.0761 50.6539C76.7775 50.922 76.4413 50.996 76.0563 51.0444C74.9167 51.1888 73.7857 51.3084 72.7003 51.8151C71.4227 52.4109 70.0775 52.8657 68.6559 52.988C68.4557 53.006 68.2615 53.1104 68.0646 53.1747C67.8303 53.25 67.6006 53.3689 67.3622 53.3931C66.2949 53.5009 65.2262 53.6322 64.1549 53.6592C62.7085 53.6958 61.2602 53.6454 59.8118 53.6239C59.6518 53.6212 59.4864 53.5742 59.3324 53.5203C58.561 53.2521 57.7709 53.306 57.0029 53.4629C56.6085 53.5431 56.2723 53.5244 55.9208 53.373C55.73 53.2908 55.5451 53.1864 55.3483 53.1242C54.7503 52.9348 54.1557 52.8076 53.5156 52.968C53.0777 53.0779 52.6103 53.1214 52.1603 53.1014C51.7552 53.0841 51.3374 52.988 50.9557 52.8422C49.4056 52.2457 47.8669 51.6188 46.3248 50.9974C45.7483 50.7651 45.1798 50.508 44.6019 50.2799C44.1908 50.1189 43.9303 49.7954 43.6718 49.4567C43.3852 49.0821 43.0478 48.8298 42.565 48.7067C41.8873 48.5353 41.2412 48.2305 40.5816 47.9817C40.4283 47.9243 40.2609 47.8898 40.1263 47.8013C38.8253 46.9511 37.385 46.4313 35.9641 45.8507C34.8572 45.3987 33.7457 44.9058 32.7614 44.1981C32.2967 43.8635 31.8942 43.4163 31.5226 42.9677C31.0579 42.4072 30.5678 41.8922 29.9156 41.5805C29.5426 41.4015 29.3163 41.1443 29.2781 40.7151C29.2333 40.2036 28.9319 39.84 28.5563 39.5636C27.8003 39.0072 27.28 38.2572 26.8294 37.443C26.8086 37.4063 26.8046 37.3476 26.7752 37.3296C26.0426 36.8803 26.0259 35.9555 25.5317 35.3424C25.2324 34.9712 25.2659 34.5413 25.5839 34.1701C25.8578 33.8515 26.125 33.5197 26.4357 33.2432C27.0048 32.7373 27.5412 32.2127 27.9162 31.5277C27.9865 31.3943 28.1438 31.3134 28.3527 31.1282Z" fill="#EEE5DA"/>
<path fill-rule="evenodd" clip-rule="evenodd" d="M82.5602 35.9347C83.1622 36.6003 83.7152 37.2106 84.3085 37.8666C84.1076 38.0739 83.9643 38.2958 83.7635 38.4174C82.9439 38.9172 82.1075 39.3844 81.4868 40.1579C80.5152 40.7074 79.7439 41.5983 78.6444 41.9287C77.9694 42.6075 77.0487 42.7305 76.2224 43.0644C75.4196 43.3892 74.6094 43.6934 73.8005 44.001C73.607 44.0742 73.4101 44.1489 73.2092 44.1917C72.239 44.3977 71.2634 44.5781 70.2972 44.7993C69.7347 44.9285 69.1575 45.0537 68.6352 45.2935C67.1728 45.964 65.6013 46.154 64.0612 46.4706C62.8901 46.7111 61.6848 46.7706 60.5123 47.0049C59.6036 47.186 58.6957 47.139 57.7884 47.1922C57.2105 47.2254 56.63 47.2074 56.0501 47.2005C55.803 47.1978 55.5298 47.2275 55.3129 47.1335C54.2603 46.6759 53.1106 46.7547 52.0305 46.4485C50.6752 46.0663 49.2979 45.7704 47.9446 45.382C46.7132 45.0295 45.5099 44.5719 44.2779 44.218C42.938 43.8323 41.7783 43.1197 40.6634 42.2951C39.8244 41.6744 38.9746 41.0641 38.1115 40.4786C37.1098 39.7985 36.1054 39.1301 35.2503 38.2481C34.9008 37.8887 34.5171 37.5535 34.1087 37.2701C33.344 36.7399 32.7869 35.9817 32.0825 35.3872C31.9579 35.2822 31.8555 35.1405 31.7684 34.9981C31.3272 34.2772 30.9301 33.5245 30.4506 32.8333C29.9063 32.0487 29.6465 31.164 29.3833 30.2634C29.7656 29.4906 30.4714 29.0648 31.0285 28.5112C31.6412 27.9029 32.3952 27.4474 33.1625 26.8689C33.2924 27.323 33.4022 27.6769 33.4926 28.037C33.5449 28.2423 33.5723 28.4545 33.5991 28.6653C33.6674 29.1982 34.2841 29.4001 34.3028 29.9855C34.3182 30.4749 34.6484 30.8447 34.9477 31.2034C35.3829 31.7239 35.7947 32.2506 35.9086 32.9673C35.9387 33.1554 36.0913 33.4228 36.244 33.4726C36.771 33.6454 36.9089 34.1942 37.2799 34.5149C37.6549 34.8384 37.9234 35.2905 38.2501 35.6762C38.3827 35.8331 38.5334 35.9817 38.6968 36.1047C39.6268 36.8028 40.6486 37.3364 41.7461 37.6585C42.2738 37.814 42.624 38.255 43.1878 38.3573C43.6525 38.4416 44.0723 38.799 44.5082 39.0423C44.7633 39.184 44.999 39.4356 45.2642 39.4702C46.1173 39.5828 46.7735 40.0908 47.4879 40.498C47.8046 40.6784 48.195 40.715 48.5332 40.8622C48.9135 41.0274 49.2684 41.2576 49.646 41.4304C49.8663 41.5327 50.1087 41.5852 50.3438 41.6481C50.7408 41.7553 51.1741 41.7843 51.5296 41.9723C51.9917 42.217 52.463 42.2992 52.9612 42.3372C53.2478 42.3594 53.5351 42.4077 53.817 42.4693C54.6613 42.6538 55.4903 42.951 56.3775 42.79C56.4947 42.7685 56.634 42.7844 56.7458 42.8287C57.4248 43.0989 58.1325 42.94 58.8095 42.9082C59.8856 42.8563 60.9515 42.6801 61.9921 43.119C62.0658 43.1501 62.1562 43.1646 62.2352 43.1563C63.5061 43.0215 64.7924 43.1294 66.0519 42.7921C67.1668 42.4941 68.3071 42.2978 69.434 42.0428C69.6724 41.9889 69.9215 41.917 70.1271 41.7877C70.5945 41.4912 71.1033 41.3696 71.6243 41.2203C72.2102 41.0523 72.7673 40.7267 73.2916 40.3929C73.7918 40.0729 74.373 39.9457 74.8531 39.6367C75.362 39.3105 75.8984 39.1453 76.4541 38.9766C77.1251 38.772 77.7324 38.3463 78.4656 38.3546C78.5051 38.3546 78.558 38.3442 78.5821 38.3172C78.9597 37.8984 79.4553 37.7304 79.9648 37.55C80.4684 37.3724 80.9485 37.1028 81.4078 36.8194C81.7962 36.5789 82.1397 36.2616 82.5602 35.9347Z" fill="#EEE5DA"/>
<path fill-rule="evenodd" clip-rule="evenodd" d="M78.0106 31.1191C78.2811 31.2989 78.5369 31.3901 78.6749 31.5746C79.0585 32.0882 79.4717 32.5437 80.0241 32.8769C80.5431 33.1907 80.8243 33.7222 81.0319 34.3622C80.6114 34.9429 80.1266 35.4619 79.3893 35.7557C78.78 35.9983 78.2483 36.4206 77.6089 36.6487C76.9942 36.8672 76.4391 37.2674 75.8579 37.5874C75.6382 37.707 75.4139 37.8176 75.2023 37.9489C74.1879 38.5799 73.1714 38.9781 71.8811 39.2435C71.7606 39.2684 71.6146 39.2774 71.5289 39.3527C71.0367 39.7902 70.4803 39.972 69.8288 39.9409C69.5924 39.9299 69.3373 40.0349 69.113 40.1386C67.8053 40.7427 66.4359 40.9722 65.0104 40.9687C64.5195 40.968 64.0314 41.118 63.5386 41.1802C62.9647 41.2521 62.3848 41.3738 61.813 41.3496C60.5736 41.2977 59.3389 41.1906 58.1061 41.4221C57.3475 41.1961 56.548 41.4187 55.7779 41.145C55.0005 40.8685 54.1675 40.7662 53.4189 40.3826C53.275 40.3086 53.1056 40.2596 52.9448 40.2499C51.9378 40.1884 51.0298 39.7736 50.1017 39.4232C49.8714 39.3361 49.631 39.2774 49.398 39.1986C49.0458 39.079 48.6132 39.0458 48.3614 38.8094C47.9336 38.4071 47.4635 38.4334 46.9472 38.4396C46.6245 38.1908 46.3084 37.9129 45.9616 37.6883C45.5451 37.4187 45.1413 37.1028 44.5996 37.1326C44.2468 37.1512 43.9501 36.9701 43.7231 36.7103C43.4365 36.3819 43.1325 36.1573 42.6799 36.0972C42.3679 36.055 42.0371 35.8884 41.7853 35.6845C40.9744 35.0265 40.1736 34.3505 39.4102 33.6344C38.6335 32.9052 38.0737 32.0094 37.9077 30.9215C37.8132 30.3042 37.609 29.7222 37.2213 29.2971C36.3241 28.3156 35.8788 27.0659 35.2065 25.9545C35.1429 25.8501 35.1188 25.7216 35.0498 25.5301C35.2232 25.3815 35.3806 25.1645 35.5875 25.0836C36.32 24.7981 37.08 24.608 37.7985 24.2555C38.2565 24.0309 38.833 24.0668 39.344 23.988C39.8214 25.0539 40.0651 26.1826 40.7347 27.1095C41.2034 27.7585 41.6119 28.4677 42.1502 29.0483C43.1212 30.0941 44.001 31.2518 45.2384 32.0053C46.0044 32.9066 47.0772 33.2591 48.0923 33.7229C49.1877 34.2233 50.3428 34.5841 51.3485 35.3016C51.7818 35.6105 52.3094 35.8048 52.819 35.9693C53.3339 36.1359 53.8388 36.3059 54.3296 36.5457C54.6557 36.7054 55.036 36.7787 55.3996 36.825C56.2219 36.9294 57.0481 36.9957 57.8738 37.0752C57.9561 37.0828 58.0418 37.0662 58.1222 37.0835C58.7516 37.2204 59.3763 37.4443 60.0212 37.1575C60.6506 37.322 61.2512 37.089 61.8652 37.0275C62.5208 36.9612 63.1824 36.9618 63.8406 36.9266C64.1292 36.9114 64.4271 36.9211 64.703 36.8478C65.7804 36.5616 66.8752 36.3467 67.9157 35.9078C68.4447 35.6845 69.04 35.4675 69.5911 35.4993C70.2902 35.54 70.8981 35.3002 71.5289 35.1357C73.0181 34.7466 74.3432 33.9455 75.7085 33.2522C76.4645 32.8686 77.108 32.3391 77.5807 31.6037C77.6705 31.4647 77.8004 31.3541 78.0106 31.1191Z" fill="#EEE5DA"/>
<path fill-rule="evenodd" clip-rule="evenodd" d="M34.0176 76.9816C34.0176 78.6702 33.2515 79.727 31.8648 80.1252C29.8747 80.6968 27.8773 80.6581 25.8725 80.2378C25.4286 80.1445 24.9927 80.007 24.5494 79.9116C24.0599 79.8052 23.5725 79.7899 23.0696 79.8839C21.7666 80.1286 20.4608 80.3802 19.1464 80.5399C18.3215 80.6401 17.5139 80.7887 16.7098 80.9878C15.1837 81.3666 13.7562 80.9892 12.4022 80.2911C10.8333 79.4824 9.50085 78.3198 8.26343 77.0604C7.39697 76.1777 6.87937 75.0387 6.47091 73.8643C6.28945 73.3404 6.07451 72.8379 5.85756 72.3305C5.43973 71.3539 5.11498 70.3309 5.22613 69.2333C5.25894 68.9056 5.36942 68.587 5.43504 68.3036C5.81002 68.2054 6.00621 68.3741 6.13678 68.598C6.34972 68.963 6.54926 69.3418 6.71264 69.7323C7.11038 70.6792 7.62664 71.5488 8.23196 72.3651C8.3565 72.5337 8.4911 72.7031 8.65113 72.8309C8.93437 73.057 9.43991 73.0411 9.69503 72.7929C10.5548 71.9566 10.8454 70.8956 10.3633 69.901C10.1959 69.5574 10.0158 69.2201 9.8544 68.8745C9.30868 67.7098 8.96049 66.4968 8.97857 65.187C8.98459 64.7605 8.90692 64.3313 8.92634 63.9069C8.94241 63.5737 9.02543 63.2364 9.12185 62.9143C9.26247 62.4429 9.65553 62.0462 9.50353 61.4898C9.8852 60.7903 10.1309 59.9829 10.8883 59.5772C11.1059 59.4604 11.3322 59.3477 11.5666 59.2841C12.0279 59.159 12.2221 59.2669 12.5107 59.6754C13.0919 60.4958 13.0839 61.4421 13.031 62.38C13.0055 62.8383 12.8401 63.2896 12.7364 63.7431C12.5013 64.7667 12.5924 65.7517 12.8857 66.7671C13.2874 68.1564 14.107 69.2692 14.942 70.3668C15.4971 71.096 16.0502 71.8446 16.8624 72.3402C17.3948 72.6651 17.899 72.9872 18.5029 73.2001C19.5924 73.5844 20.6249 74.1428 21.6896 74.6073C23.0214 75.1886 24.3398 75.8149 25.7031 76.3028C27.4428 76.9249 29.2668 77.0321 31.1001 76.9692C31.8862 76.9422 32.673 76.9346 33.4591 76.9256C33.6205 76.9229 33.7812 76.956 34.0176 76.9816Z" fill="#EEE5DA"/>
<path fill-rule="evenodd" clip-rule="evenodd" d="M16.5144 63.0484C16.1856 61.9093 16.418 60.8441 16.3684 59.8301C16.6577 59.5267 16.8652 59.7666 17.0641 59.8682C17.2054 59.94 17.3212 60.0824 17.4297 60.2103C18.2185 61.1282 19.2952 61.4317 20.392 61.6915C20.5132 61.7206 20.6431 61.7821 20.7563 61.76C21.912 61.5319 23.0483 61.9701 24.2087 61.8471C24.7732 61.7876 25.3457 61.9708 25.8613 62.3067C26.3856 62.6502 26.9521 62.8928 27.605 62.9191C28.0101 62.935 28.4031 63.1472 28.8102 63.2184C29.6613 63.367 30.4521 63.2039 31.1424 62.6357C31.8308 62.0689 32.112 60.5759 31.6406 59.8163C31.2174 59.1348 30.7621 58.4733 30.3054 57.8146C30.1869 57.6439 30.0302 57.4814 29.8561 57.3778C29.4169 57.1186 29.0165 56.8531 28.8337 56.3133C28.7774 56.1495 28.5283 56.0458 28.3542 55.9359C28.1092 55.7818 27.8119 55.6912 27.6076 55.4949C26.9722 54.8832 26.312 54.3213 25.5901 53.8091C25.1006 53.4621 24.7719 52.8546 24.261 52.4855C23.5713 51.9885 23.0624 51.318 22.5267 50.6676C22.0707 50.1146 21.5846 49.5886 21.1125 49.0502C21.0315 48.9576 20.8949 48.8656 20.8862 48.764C20.8527 48.3687 20.6076 48.1682 20.3157 47.9809C19.9206 47.7272 19.63 47.4065 19.5296 46.8964C19.4861 46.6745 19.2483 46.4921 19.0883 46.2778C19.4928 44.9542 19.8008 43.6063 20.7302 42.2737C20.8949 43.9339 21.748 44.997 22.435 46.1485C23.0617 47.1992 23.953 47.9298 24.9634 48.5394C25.3571 48.7772 25.6845 49.0951 26.016 49.4248C26.5463 49.9536 27.1423 50.4243 27.7563 50.8508C29.37 51.9733 30.7802 53.3584 32.3303 54.5604C33.2269 55.2551 33.9681 56.1108 34.8011 56.8683C35.6388 57.6307 36.4196 58.4574 37.2405 59.2385C37.9677 59.931 38.7096 60.6077 39.4562 61.2782C40.2182 61.9618 40.2905 62.6489 39.637 63.4942C39.1723 64.0962 38.6654 64.663 38.1993 65.263C37.9797 65.545 37.7266 65.7523 37.3891 65.8145C35.8839 66.0889 34.4288 66.6481 32.8881 66.6937C31.9004 66.7228 30.9081 66.6751 29.9218 66.6101C29.587 66.588 29.2702 66.5652 28.9401 66.6385C28.7942 66.6702 28.606 66.6357 28.4721 66.5624C27.8982 66.25 27.2829 66.1947 26.6575 66.2251C25.2399 66.2928 23.9851 65.8774 22.7939 65.0722C21.4051 64.1329 19.8985 63.414 18.2393 63.1341C17.7136 63.0442 17.1686 63.0767 16.5144 63.0484Z" fill="#EEE5DA"/>
<path fill-rule="evenodd" clip-rule="evenodd" d="M87.528 77.6742C87.3666 77.7917 87.1604 77.8753 87.0519 78.0316C86.6173 78.6523 86.2129 79.2951 85.7663 79.978C85.2922 79.9061 84.8282 79.6787 84.3233 79.8653C83.8599 80.0367 83.3611 80.1051 82.8843 80.242C81.8484 80.5392 80.8193 80.8627 79.7807 81.1544C77.8958 81.6852 75.9794 82.0495 74.0195 81.9161C72.4325 81.8069 70.8811 82.0509 69.3189 82.2278C69.0738 82.2562 68.8254 82.3108 68.581 82.2956C67.2103 82.2029 65.8524 82.4221 64.4877 82.4684C64.325 82.4739 64.1416 82.4953 64.007 82.5776C63.8396 82.6806 63.6407 82.8278 63.5798 83.002C63.2496 83.9475 63.2811 84.871 63.9936 85.6306C64.7991 86.4898 65.6368 87.342 66.7363 87.7885C67.9616 88.2855 68.8281 89.1267 69.3932 90.3404C69.726 91.0544 70.2771 91.5666 70.9387 91.9544C71.4342 92.2447 71.933 92.5301 72.4941 92.8536C72.1788 93.0907 71.9203 93.3001 71.6478 93.4875C70.9929 93.9367 70.3226 94.3618 69.6771 94.8236C69.2298 95.1436 68.7712 95.4152 68.1458 95.5002C67.0603 95.033 65.9414 94.4842 64.939 93.7204C64.4094 93.3167 63.9233 92.8516 63.4365 92.3926C63.2892 92.2537 63.1793 92.056 63.0963 91.8645C62.7896 91.165 62.4756 90.469 62.3705 89.6914C62.262 88.8834 62.0049 88.1168 61.5964 87.2929C61.2241 87.125 60.7547 86.9618 60.3335 86.7116C59.8374 86.4165 59.3626 86.0709 58.916 85.7004C58.2732 85.1661 57.6799 84.5703 57.0351 84.0388C56.6822 83.7478 56.2697 83.5328 55.88 83.2888C55.1341 82.8243 54.415 82.3336 53.9282 81.5553C53.8418 81.4184 53.6992 81.2933 53.5545 81.227C52.9472 80.9463 52.6887 80.3395 52.3118 79.8446C52.2722 79.7941 52.3057 79.6835 52.3057 79.5736C52.4912 79.2771 52.8193 79.2985 53.0624 79.4057C53.7534 79.7112 54.4377 79.6455 55.1361 79.4962C55.5473 79.4077 55.9396 79.369 56.332 79.6268C56.7445 79.8971 57.2239 79.7685 57.6699 79.7257C58.2015 79.6738 58.7285 79.4962 59.2582 79.7436C59.3278 79.7768 59.4249 79.7713 59.5039 79.7561C60.4494 79.5771 61.3862 79.83 62.3296 79.8121C62.9463 79.8003 63.5704 79.9158 64.1824 79.8612C64.8353 79.8024 65.4814 79.631 66.1222 79.4713C66.6351 79.3441 67.0978 79.0497 67.6757 79.1637C67.9362 79.2149 68.2368 79.0525 68.5187 78.9799C68.6788 78.9384 68.8589 78.8057 68.9901 78.8472C69.7628 79.0918 70.5255 78.8541 71.2895 78.8679C71.7857 78.8769 72.2772 78.8486 72.77 78.8486C74.3382 78.8465 75.9104 78.6654 77.4733 78.946C77.5945 78.9674 77.721 78.9668 77.8442 78.9619C78.791 78.9267 79.7117 78.6502 80.6726 78.693C81.5819 78.7331 82.4859 78.523 83.3878 78.4428C84.4826 78.3447 85.5024 78.1242 86.474 77.6058C86.8182 77.4226 87.1952 77.4102 87.532 77.6783L87.528 77.6742Z" fill="#EEE5DA"/>
<path fill-rule="evenodd" clip-rule="evenodd" d="M73.3599 27.3929C73.9913 27.4551 74.3449 27.7676 74.689 28.0703C75.4671 28.7532 76.3891 29.264 77.0962 30.1446C76.9737 30.3298 76.8887 30.5213 76.7514 30.6581C75.453 31.9541 73.848 32.758 72.2323 33.4962C71.3049 33.9206 70.3105 34.2531 69.276 34.3733C68.9914 34.4065 68.6908 34.4736 68.4417 34.6104C67.9241 34.8952 67.3549 35.003 66.8146 35.2035C65.5323 35.679 64.2219 35.6942 62.8954 35.6389C62.6885 35.63 62.4601 35.5719 62.2787 35.6403C61.2924 36.0156 60.3348 35.7309 59.3632 35.5733C58.5162 35.4364 57.6518 35.4627 56.7987 35.3431C55.4555 35.1544 54.0962 35.0521 52.8514 34.4155C52.8146 34.3962 52.7784 34.3678 52.7396 34.3616C51.2912 34.1342 49.9949 33.4368 48.6296 32.9516C47.5267 32.5596 46.5458 31.9797 45.6385 31.2028C44.3522 30.1024 43.3525 28.7366 42.2007 27.5139C41.5887 26.2739 40.6178 25.197 40.5776 23.6549C41.1562 23.2782 41.9014 23.3149 42.5329 23.0287C43.1951 22.7287 43.9009 22.7992 44.6093 22.5704C44.8015 22.9561 44.9983 23.2803 45.1309 23.6314C45.5749 24.8078 46.4025 25.723 47.0908 26.7314C47.2736 26.9996 47.5696 27.2125 47.8555 27.3715C48.2204 27.5733 48.574 27.7613 48.8793 28.0717C49.0702 28.2659 49.3862 28.3302 49.6487 28.4477C50.2547 28.7186 50.8881 28.9371 51.464 29.2654C52.6257 29.9276 53.8344 30.4556 55.1073 30.8365C55.2653 30.8842 55.43 30.9609 55.588 30.9526C56.6701 30.8932 57.7013 31.2851 58.7787 31.2954C59.5166 31.303 60.2518 31.4613 60.991 31.5152C61.6466 31.5636 62.3095 31.6431 62.9289 31.2789C63.2349 31.0984 63.5703 31.1828 63.8984 31.2595C64.3471 31.3653 64.7877 31.395 65.2457 31.2464C65.5115 31.1606 65.8148 31.1835 66.1014 31.189C66.4416 31.1952 66.7382 31.1724 66.986 30.8572C67.0897 30.7245 67.3583 30.6685 67.5478 30.6768C68.362 30.7135 69.1073 30.4729 69.807 30.0879C70.5355 29.6877 71.25 29.2529 71.9457 28.7954C72.324 28.5465 72.695 28.2694 72.9226 27.8318C73.013 27.6563 73.2092 27.5395 73.3599 27.3929Z" fill="#EEE5DA"/>
<path fill-rule="evenodd" clip-rule="evenodd" d="M48.7679 84.5032C48.8911 84.8468 48.7572 85.0583 48.5771 85.2463C47.6463 86.2202 46.5027 86.7759 45.2177 87.0448C44.2388 87.2494 43.2471 87.3199 42.25 87.2957C41.709 87.2832 41.18 87.3047 40.6564 87.4913C40.3899 87.586 40.0866 87.5791 39.7993 87.6046C39.6346 87.6192 39.4679 87.5991 39.3025 87.6032C38.1206 87.6337 37.4597 87.8624 37.4678 89.2628C37.4684 89.3423 37.4195 89.4211 37.3908 89.5096C36.7225 89.8621 36.0308 89.9955 35.2554 89.9796C34.2349 89.9575 33.1843 89.8524 32.192 90.2685C32.1177 90.2996 32.0286 90.3148 31.9483 90.3093C30.3981 90.2077 28.915 90.6971 27.3936 90.8422C26.6946 90.9093 25.9895 90.9072 25.2878 90.9293C24.9576 90.9397 24.6269 90.9169 24.2981 90.9397C23.4591 90.9977 22.7205 90.7378 22.1708 90.0936C21.6846 89.5248 21.2809 88.8792 20.8463 88.264C20.7994 88.1977 20.784 88.1058 20.7573 88.0249C20.6294 87.6385 20.8865 87.2072 21.2755 87.1768C21.4382 87.1636 21.605 87.1851 21.769 87.1989C22.3469 87.2473 22.9348 87.2487 23.4993 87.3669C24.0189 87.4747 24.5217 87.6848 25.0159 87.8936C25.8408 88.2426 26.6973 88.3235 27.5751 88.3256C28.4027 88.3283 29.2317 88.376 30.0593 88.3781C30.9814 88.3788 31.8833 88.2405 32.6841 87.7284C32.9225 87.5763 33.1415 87.3592 33.3082 87.1256C33.6089 86.7068 33.402 86.1552 32.9011 86.0176C32.6661 85.954 32.4109 85.9541 32.1652 85.9596C31.7105 85.97 31.2566 86.0011 30.8019 86.0315C30.1397 86.0743 29.5846 85.8573 29.0864 85.2808C29.2136 85.1668 29.31 85.0278 29.4393 84.9718C30.5997 84.4721 31.8344 84.3235 33.0698 84.1894C33.5633 84.1355 34.0568 84.0857 34.551 84.0401C35.9605 83.9095 37.3653 83.9876 38.7681 84.1452C39.3587 84.4832 40.031 84.5274 40.6698 84.6636C41.3113 84.8018 41.9809 84.8398 42.6377 84.8433C43.377 84.846 44.1135 84.9926 44.8575 84.8502C45.4266 84.741 46.0112 84.7203 46.5817 84.62C47.3182 84.4915 48.0488 84.4348 48.7679 84.5032Z" fill="#EEE5DA"/>
<path fill-rule="evenodd" clip-rule="evenodd" d="M50.9632 21.6228C51.16 22.6112 51.6636 23.4082 52.372 24.004C53.3644 24.8376 54.4699 25.5066 55.7495 25.7873C56.5115 25.9545 57.325 25.8999 58.0161 26.3637C59.5448 26.4612 61.0085 26.9906 62.5345 27.0978C63.7385 27.1814 64.9317 27.104 66.1209 26.8524C66.753 26.719 67.2585 26.3541 67.8083 26.072C68.0172 25.9656 68.1853 25.7403 68.3266 25.5357C68.5388 25.2267 68.7109 24.8873 68.9185 24.5286C69.6109 24.4968 70.0394 25.0608 70.5965 25.2917C71.1168 25.508 71.5708 25.8923 72.1239 26.2476C71.86 26.4882 71.6705 26.7135 71.4362 26.8662C70.7023 27.3432 69.8285 27.5402 69.124 28.0841C69.0343 28.1539 68.8736 28.192 68.7678 28.1622C68.1565 27.9881 67.6228 28.3212 67.0824 28.4733C66.2408 28.711 65.4178 28.9716 64.5319 28.8852C64.4509 28.8776 64.3532 28.8645 64.2855 28.8997C63.4854 29.3172 62.6684 29.0352 61.8489 29.0096C61.0674 28.9848 60.282 29.1147 59.4986 29.1776C58.7955 29.2336 58.1225 29.208 57.4168 29.0014C56.5965 28.7615 55.7127 28.7463 54.8542 28.6606C54.5563 28.6309 54.267 28.615 54.0628 28.3675C53.7675 28.0088 53.3657 27.9943 52.9579 27.8927C51.6334 27.563 50.3404 27.1213 49.2242 26.267C49.1907 26.2414 49.1646 26.2027 49.1278 26.1868C48.1268 25.7396 47.5462 24.8576 46.9436 23.9826C46.6014 23.4849 46.3878 22.9437 46.2017 22.3776C46.8719 21.7963 47.7263 22.0728 48.4743 21.8315C49.2028 21.5965 50.0291 21.6857 50.9632 21.6228Z" fill="#EEE5DA"/>
<path fill-rule="evenodd" clip-rule="evenodd" d="M64.5151 83.6357C65.7277 83.3143 66.9263 83.3171 68.1175 83.3544C68.9137 83.38 69.6965 83.3074 70.4531 83.1056C71.5118 82.8243 72.5885 82.8132 73.6511 82.856C75.609 82.9355 77.5314 82.7593 79.4311 82.2989C80.6772 81.9976 81.9133 81.6554 83.1507 81.3188C83.675 81.175 84.194 81.0437 84.8013 81.2234C84.7531 81.3803 84.741 81.5538 84.6567 81.6727C84.3339 82.1255 83.9442 82.5042 83.4125 82.6957C83.2572 82.7517 83.0971 82.8139 82.9632 82.91C82.3251 83.3696 81.6227 83.3959 80.8627 83.4401C79.7224 83.5051 78.5626 83.6509 77.4786 84.1133C76.2458 84.638 75.1021 84.8453 73.554 84.8495C72.9253 84.8515 72.1579 85.4169 71.953 86.0335C71.8727 86.274 71.7997 86.5166 71.726 86.7503C71.7414 87.1491 71.9965 87.4021 72.2711 87.5721C73.0505 88.0546 73.8179 88.5336 74.5062 89.1674C74.9147 89.5427 75.5206 89.6879 76.0356 89.9422C76.1059 89.9768 76.1614 90.0424 76.2311 90.0991C76.2873 90.3507 76.1219 90.4924 75.9545 90.6099C75.5106 90.923 75.0238 91.1802 74.6153 91.5347C74.223 91.8762 73.7884 91.9467 73.3371 91.8838C72.2255 91.7304 71.3028 91.2016 70.648 90.2443C70.362 89.8268 70.1043 89.3844 69.8699 88.9338C69.5244 88.2702 69.0389 87.794 68.366 87.4843C67.1895 86.9438 66.0913 86.2747 65.17 85.3195C64.8392 84.976 64.6122 84.5875 64.491 84.1341C64.4515 83.9834 64.5044 83.8071 64.5151 83.6357Z" fill="#EEE5DA"/>
<path fill-rule="evenodd" clip-rule="evenodd" d="M68.049 23.9279C67.5763 24.711 67.0105 25.3192 66.0824 25.5252C65.2729 25.7056 64.4914 25.9503 63.6384 25.7941C63.2004 25.7139 62.7304 25.8529 62.2777 25.8294C60.9138 25.7589 59.5786 25.5038 58.2648 25.1174C57.7097 24.9543 57.1285 24.8838 56.5808 24.6999C55.5596 24.3557 54.5459 23.979 53.5428 23.5795C52.6529 23.2249 52.2773 22.4287 51.9746 21.5073C52.1507 21.4299 52.2927 21.3179 52.4393 21.311C53.4698 21.2605 54.5064 21.2246 55.5295 21.1368C57.0509 21.0062 58.5487 21.2412 60.058 21.2308C60.3037 21.2287 60.5555 21.275 60.7946 21.3379C62.6353 21.8169 64.4727 22.3022 66.2572 22.9823C66.5766 23.104 66.8444 23.274 67.125 23.4516C67.4049 23.6293 67.7142 23.7578 68.049 23.9279Z" fill="#EEE5DA"/>
<path fill-rule="evenodd" clip-rule="evenodd" d="M16.3789 56.6195C16.5463 55.9006 16.6909 55.2827 16.8309 54.6821C17.1489 54.6378 17.1925 54.9033 17.3411 55.0159C17.475 55.1168 17.5875 55.2447 17.7134 55.356C18.1554 55.7444 18.5919 56.1384 19.0412 56.5165C19.607 56.9934 20.2773 57.2105 20.9924 57.272C21.5234 57.3176 21.9634 56.8469 21.9051 56.2981C21.8448 55.7375 21.6955 55.2067 21.2455 54.8203C20.9261 54.5466 20.6436 54.2217 20.3034 53.9833C19.7055 53.5658 19.289 52.9748 18.8276 52.4301C18.45 51.9836 18.1393 51.4756 17.765 50.9461C17.9049 50.3724 18.0549 49.76 18.1982 49.1718C18.4165 49.0675 18.5538 49.1414 18.6368 49.3059C18.9776 49.9874 19.3184 50.669 19.6412 51.3588C19.8066 51.7106 20.0048 52.0085 20.3068 52.2656C20.7186 52.6168 21.1016 53.0163 21.4411 53.4427C22.1348 54.3116 22.9872 54.9876 23.8777 55.6048C24.3773 55.9497 24.6357 56.531 25.1225 56.8379C25.5725 57.122 26.1383 57.2077 26.597 57.4814C26.9914 57.7164 27.3617 57.966 27.8029 58.1166C28.0634 58.2058 28.277 58.4477 28.5 58.6364C28.8147 58.9032 29.118 59.1852 29.566 59.5847C29.6149 59.817 29.7006 60.2255 29.795 60.6727C29.0363 60.9865 28.3426 61.0964 27.5779 60.8683C26.5421 60.5586 25.4613 60.5027 24.3886 60.4239C23.5617 60.3637 22.73 60.3167 21.9138 60.1799C21.3915 60.0928 20.8679 59.9082 20.3898 59.6711C19.7209 59.3387 19.0935 58.9191 18.452 58.53C18.3475 58.4671 18.219 58.3876 18.1748 58.2825C17.8319 57.4863 17.1135 57.1137 16.3789 56.6195Z" fill="#EEE5DA"/>
<path fill-rule="evenodd" clip-rule="evenodd" d="M40.3022 95.2202C40.6183 95.0371 40.7187 94.959 40.8326 94.9154C41.9146 94.5049 42.9947 94.086 44.0848 93.6989C44.4303 93.5766 44.8019 93.5199 45.1662 93.4722C45.7909 93.3913 46.3608 93.5012 46.946 93.8185C47.556 94.1503 48.2283 94.3756 48.92 94.5477C49.7135 94.7447 50.4507 95.167 51.2375 95.4055C52.0825 95.6626 52.8177 96.1216 53.5637 96.5702C53.8094 96.7174 54.0223 96.9234 54.3812 97.2061C52.197 97.3008 50.1701 97.5365 48.1386 97.1722C46.9212 96.9545 45.7012 96.7603 44.4846 96.5391C44.202 96.4879 43.9167 96.4015 43.6556 96.2792C43.053 95.9958 42.4343 95.7919 41.7787 95.6758C41.3421 95.5997 40.923 95.4172 40.3022 95.2202Z" fill="#EEE5DA"/>
<path fill-rule="evenodd" clip-rule="evenodd" d="M76.1134 86.8202C76.4321 86.7863 76.7615 86.6812 77.0668 86.731C77.9246 86.8713 78.6906 86.6377 79.4379 86.2485C79.916 85.9997 79.9187 86.0059 80.4684 86.0688C80.4684 86.1462 80.5006 86.2554 80.4637 86.2955C79.8711 86.9314 79.2678 87.5577 78.6712 88.1901C78.2159 88.6739 77.7686 88.7597 77.253 88.4148C76.7334 88.0671 76.412 87.5314 75.9814 87.098C76.025 87.0054 76.0692 86.9128 76.1134 86.8202Z" fill="#EEE5DA"/>
<path fill-rule="evenodd" clip-rule="evenodd" d="M20.5865 56.061C20.4801 56.061 20.3395 56.106 20.2544 56.0548C19.1871 55.4037 18.18 54.6738 17.4455 53.6169C17.1408 53.178 17.1528 53.1552 17.4354 52.4053C17.7113 52.5857 17.9369 52.8145 18.1284 53.0585C18.7773 53.8831 19.469 54.6572 20.2966 55.2973C20.5263 55.4742 20.7185 55.6975 20.5865 56.061Z" fill="#EEE5DA"/>
<path fill-rule="evenodd" clip-rule="evenodd" d="M78.5462 29.4112C78.2228 29.1935 77.9054 28.9329 77.6904 28.4594C78.048 28.3744 78.3674 28.2251 78.6801 28.2389C79.3772 28.2687 80.0729 28.3647 80.7632 28.4739C80.8617 28.4892 80.9661 28.7193 80.9922 28.8638C81.0056 28.9405 80.8657 29.1092 80.7733 29.1292C80.0501 29.2847 79.3363 29.5398 78.5462 29.4112Z" fill="#EEE5DA"/>
<path fill-rule="evenodd" clip-rule="evenodd" d="M87.5299 77.6755C87.4777 77.6168 87.3726 77.5179 87.3819 77.5041C87.4509 77.406 87.4857 77.4343 87.4723 77.5698C87.4697 77.6023 87.5085 77.6389 87.5279 77.6741L87.5299 77.6755Z" fill="#EEE5DA"/>
<path fill-rule="evenodd" clip-rule="evenodd" d="M12.6923 52.9935C12.7157 53.0233 12.7532 53.0502 12.7599 53.0841C12.9555 54.02 12.5082 54.7022 11.9095 55.3118C11.8399 55.3823 11.6779 55.3802 11.5627 55.3685C11.5078 55.3623 11.4261 55.2641 11.4154 55.1978C11.3457 54.7588 11.4877 54.3676 11.6933 53.9902C12.018 53.3917 12.1292 53.2735 12.6923 52.9935Z" fill="#EEE5DA"/>
<path fill-rule="evenodd" clip-rule="evenodd" d="M73.4438 72.5213C73.9313 72.0223 74.5011 71.6096 75.144 71.3449C75.9816 71 76.7758 70.4913 77.7233 70.492C78.4618 70.0883 79.2928 69.9743 80.0736 69.7033C80.4633 69.5671 80.8757 69.496 81.2835 69.4268C81.4348 69.4013 81.6076 69.4427 81.7569 69.4939C82.0087 69.5796 82.0917 69.9459 81.8902 70.1104C81.5674 70.3738 81.248 70.6641 80.8811 70.8452C79.5051 71.5212 78.1451 72.2552 76.6961 72.7432C75.6689 73.0881 74.5882 73.1116 73.545 72.6886C73.5162 72.6755 73.5028 72.6202 73.4438 72.5213Z" fill="#EEE5DA"/>
<path fill-rule="evenodd" clip-rule="evenodd" d="M45.3949 72.0354C44.4427 71.9255 43.6211 71.837 42.8029 71.725C42.7219 71.7133 42.6362 71.5647 42.5967 71.4603C42.5779 71.4098 42.6402 71.2792 42.6978 71.2495C43.6546 70.7532 44.6229 70.2804 45.7023 70.1464C45.9018 70.1215 46.1167 70.165 46.3156 70.2162C46.6464 70.3012 46.9511 70.3185 47.2752 70.1512C47.5356 70.0178 47.7445 70.2148 47.9099 70.4118C48.0358 70.5624 48.0352 70.9039 47.8878 71.0007C47.0823 71.5239 46.2272 71.9255 45.3949 72.0354Z" fill="#EEE5DA"/>
<path fill-rule="evenodd" clip-rule="evenodd" d="M16.0342 69.7821C16.063 69.5305 16.1098 69.3984 16.0877 69.2802C15.9197 68.4045 15.7375 67.5315 15.5608 66.6572C15.5193 66.4498 15.461 66.2417 15.4496 66.0323C15.3646 64.4958 15.2595 62.9606 15.2159 61.4234C15.1302 58.4201 15.307 55.4293 15.6987 52.453C15.7215 52.283 15.7074 52.0791 15.7945 51.954C16.2016 51.3651 16.1721 50.6545 16.3422 50.002C16.5464 49.2175 16.7292 48.4302 17.0861 47.6955C17.2321 47.3969 17.3037 47.0527 17.3667 46.7209C17.4798 46.132 17.6519 45.579 17.9158 45.0337C18.209 44.4282 18.4106 43.7653 18.5693 43.1059C18.6818 42.638 18.8612 42.2184 19.0782 41.8044C19.1759 41.6164 19.2924 41.436 19.3701 41.239C20.0591 39.4854 21.099 37.9496 22.1563 36.4255C22.2762 36.252 22.459 36.1089 22.5306 35.9188C22.7945 35.2173 23.2725 34.6767 23.7714 34.1701C24.6887 33.2391 25.4079 32.1387 26.2643 31.1572C26.6252 30.7438 26.9768 30.3388 27.4147 30.0008C28.407 29.2336 29.2266 28.241 30.3261 27.6092C30.3957 27.5691 30.4627 27.5069 30.5062 27.4371C31.1055 26.4667 32.0831 25.9448 32.9248 25.2626C34.0143 24.3799 35.2945 23.8927 36.5594 23.3729C37.7372 23.3349 38.7523 22.6105 39.9201 22.5275C40.0018 22.522 40.0869 22.4971 40.1585 22.4591C41.4287 21.7797 42.857 21.6587 44.2076 21.2709C45.3573 20.9412 46.5739 20.8998 47.7216 20.5217C47.9145 20.4581 48.1328 20.4712 48.3397 20.4622C48.5466 20.4533 48.7568 20.4823 48.9611 20.4546C49.6976 20.3579 50.4308 20.2376 51.1667 20.1381C51.8644 20.0447 52.5702 20.1878 53.2713 20.0116C53.6663 19.9127 54.0942 19.9584 54.508 19.9397C55.0457 19.9148 55.6008 19.9708 56.1184 19.8526C57.862 19.4558 59.5762 19.8125 61.2984 19.9846C61.5395 20.0095 61.7725 20.127 62.0102 20.2023C62.2867 20.2915 62.5586 20.4291 62.8418 20.4609C64.0096 20.5929 65.0509 21.1527 66.1644 21.4672C66.3988 21.5329 66.6124 21.6732 66.836 21.7797C67.1735 21.9386 67.4989 22.146 67.8525 22.2517C69.5559 22.7591 70.9875 23.7468 72.3655 24.8562C72.8818 25.2723 73.4831 25.5771 74.0563 25.9151C74.5605 26.2137 75.0627 26.5054 75.4624 26.9595C75.7571 27.294 76.1501 27.4302 76.5874 27.4046C76.9999 27.3811 77.415 27.3645 77.8241 27.3065C78.6035 27.1952 79.3816 27.2636 80.1543 27.33C80.5581 27.3639 80.9759 27.5007 81.3402 27.688C81.9455 27.9998 82.2374 28.5624 82.2368 29.2605C82.2368 29.7603 81.9402 30.1556 81.4681 30.3146C81.2331 30.3941 80.9833 30.4259 80.7416 30.4832C80.5065 30.5392 80.2729 30.6001 79.9816 30.674C80.4108 31.4827 80.9746 32.1076 81.5504 32.6688C82.6647 33.754 83.655 34.9532 84.6728 36.1234C85.2379 36.7731 85.9892 37.3074 86.2289 38.2261C86.6662 38.6221 86.9876 39.1149 87.3271 39.5953C88.1621 40.7787 88.8149 42.0449 89.1611 43.4806C89.289 44.0121 89.5019 44.5554 89.8026 45.0026C90.347 45.8147 90.5224 46.7084 90.5894 47.6533C90.6007 47.8109 90.6376 47.9657 90.6657 48.1455C91.1009 47.8558 91.4344 47.5206 91.6239 47.1639C91.723 46.9766 91.7679 46.7561 91.881 46.5806C92.5212 45.5783 92.6745 44.4531 92.7502 43.2884C92.797 42.5744 92.6671 41.9309 92.3176 41.3261C91.6379 40.1517 90.9817 38.9622 90.2633 37.8127C89.8073 37.0842 89.4457 36.328 89.2087 35.502C88.8022 34.0885 89.3734 32.9128 90.5351 32.4338C91.3989 32.0778 92.2587 32.2486 93.0247 32.7421C93.4017 32.9854 93.7164 33.3531 94.011 33.7063C94.5608 34.3643 95.1902 34.8959 95.9441 35.2885C96.7919 35.7308 97.6148 36.2264 98.4551 36.6847C98.798 36.8713 99.0585 37.1319 99.2433 37.4761C99.9952 38.8799 100.507 40.3508 100.509 41.9848C100.51 42.5122 100.426 43.0119 100.244 43.4888C99.9142 44.3577 99.5339 45.2051 99.1991 46.0712C98.7069 47.343 98.2308 48.6231 98.346 50.0345C98.3567 50.1582 98.4083 50.2764 98.4364 50.3829C98.731 50.5757 99.0223 50.5729 99.2627 50.369C99.5821 50.1008 99.8961 49.814 100.154 49.4864C100.597 48.9224 100.982 48.3093 101.415 47.7383C101.642 47.439 101.908 47.1653 102.185 46.9137C102.37 46.7444 102.715 46.8197 102.847 47.0361C102.978 47.2517 103.107 47.4771 103.186 47.7162C103.76 49.4497 103.846 50.9047 103.498 52.6306C102.996 53.5541 102.818 54.6317 102.213 55.5102C101.854 56.0307 101.483 56.5567 101.444 57.234C100.913 58.2501 100.4 59.2779 99.8372 60.2753C99.6772 60.5587 99.3953 60.7854 99.1321 60.9865C98.1665 61.7227 97.1856 62.4381 96.208 63.1576C96.0734 63.2565 95.9334 63.365 95.7794 63.4161C94.4041 63.8709 93.3715 64.9015 92.1823 65.6694C91.9098 65.845 91.7933 66.1097 91.7612 66.4173C91.7036 66.9675 91.65 67.5184 91.6138 68.07C91.49 69.9991 91.0896 71.857 90.499 73.697C90.0818 74.9972 89.4972 76.2171 89.0332 77.4917C88.8497 77.9963 88.4868 78.4449 88.1527 78.8748C87.5293 79.6773 87.1182 80.6173 86.5229 81.4336C86.3006 81.7384 86.0783 82.0432 85.852 82.346C85.8017 82.413 85.718 82.4614 85.6879 82.5354C85.0806 84.0436 83.7949 84.9857 82.8294 86.1939C81.9629 86.7268 81.3194 87.5251 80.6599 88.2751C80.0157 89.0085 79.1586 89.457 78.5245 90.1842C78.3591 90.3736 78.1442 90.5229 78.0002 90.7268C77.7217 91.118 77.3514 91.3806 76.9597 91.6274C76.7146 91.7815 76.4427 91.9156 76.2419 92.1202C75.587 92.7886 74.8725 93.3533 74.0228 93.7335C73.8815 93.7971 73.7751 93.9478 73.6572 94.0632C73.5374 94.1793 73.4416 94.3618 73.301 94.4102C72.4258 94.7129 71.7723 95.411 70.9353 95.7926C70.4592 96.0103 70.0494 96.4036 69.6396 96.7547C69.2794 97.0637 68.9097 97.2462 68.4343 97.3388C67.5893 97.5033 66.7469 97.7044 65.9354 98.048C65.3354 98.3023 64.6377 98.265 64.0337 98.5636C63.107 98.3113 62.1528 98.8504 61.2274 98.4585C61.0828 98.397 60.9027 98.4074 60.7406 98.4143C59.0459 98.4896 57.3411 98.4827 55.6584 98.6756C53.8793 98.8795 52.1035 98.8705 50.3264 98.8373C49.1331 98.8159 47.9305 98.7599 46.7527 98.5753C45.6137 98.3963 44.4841 98.1344 43.3726 97.7722C42.1894 97.3879 41.0283 96.9434 39.8525 96.546C38.9954 96.255 38.1798 95.8154 37.2652 95.7145C36.0907 94.9984 34.6618 94.8297 33.5877 93.8973C33.5563 93.8704 33.5221 93.8386 33.4839 93.8282C32.2084 93.466 31.3325 92.423 30.2464 91.7795C28.5269 91.812 26.8562 92.2156 25.1528 92.1244C24.4932 92.0891 23.8283 92.103 23.1748 92.02C22.4563 91.9288 21.8296 91.6157 21.3789 90.986C21.16 90.6791 20.8821 90.4164 20.6624 90.1095C20.1656 89.417 19.8047 88.649 19.6701 87.7961C19.6339 87.5659 19.721 87.2777 19.8368 87.0669C19.9955 86.7766 20.2352 86.5333 20.4194 86.2969C21.3006 86.2596 22.1269 86.198 22.9538 86.2008C23.2726 86.2008 23.5953 86.33 23.908 86.4254C24.0961 86.4828 24.2535 86.666 24.5274 86.5388C24.2408 85.9762 23.8959 85.4757 23.4359 85.0589C22.9967 84.6615 22.6438 84.2005 22.3338 83.6828C21.9226 82.995 21.4298 82.3598 20.9972 81.7391C20.4053 81.5311 19.8717 81.5898 19.34 81.6914C18.6483 81.8234 17.9579 81.9644 17.2689 82.1117C16.444 82.2879 15.615 82.2001 14.7901 82.1366C13.7515 82.0557 12.7411 81.7751 11.7936 81.3596C11.1983 81.0998 10.6774 80.6353 10.1611 80.2136C8.85674 79.1471 7.85703 77.7668 6.70264 76.5441C6.33972 76.1591 6.09063 75.6268 5.88573 75.1209C5.53486 74.2527 5.25965 73.3521 4.95164 72.466C4.83982 72.1453 4.7521 71.8128 4.60747 71.5087C4.10393 70.4491 4.13807 69.3632 4.43471 68.2656C4.59608 67.6704 5.03132 67.3221 5.59981 67.2785C6.15625 67.2364 6.55667 67.4817 6.82518 67.9808C7.36823 68.9913 7.91127 70.0019 8.46101 71.0075C8.62372 71.3048 8.79915 71.5958 8.99066 71.8729C9.12793 72.0734 9.52701 71.9814 9.60401 71.7381C9.70579 71.4091 9.77208 71.0877 9.61272 70.7414C9.38104 70.2396 9.21833 69.704 8.96991 69.2125C8.33714 67.9587 8.25277 66.5915 8.15567 65.2264C8.12219 64.757 8.15299 64.2829 8.12353 63.8136C8.02443 62.2459 8.56079 60.8877 9.38573 59.618C9.87722 58.8597 10.6245 58.4844 11.4287 58.2653C12.0467 58.0966 12.6694 58.284 13.2138 58.6268C13.3672 58.7236 13.481 58.9447 13.5386 59.1327C13.6631 59.5385 13.704 59.9726 13.8419 60.3721C14.0582 60.9976 14.024 61.5976 13.9357 62.2521C13.7877 63.3477 13.7361 64.4667 13.7602 65.5733C13.7729 66.1526 13.9865 66.7449 14.1948 67.2972C14.5128 68.1391 15.0237 68.8724 15.613 69.5408C15.6887 69.6307 15.8192 69.6646 16.0342 69.7821ZM87.53 77.6755C87.1932 77.4074 86.8168 77.4198 86.472 77.603C85.4997 78.1214 84.4799 78.3419 83.3858 78.44C82.4832 78.5202 81.5799 78.7303 80.6706 78.6902C79.7097 78.6474 78.789 78.9239 77.8422 78.9591C77.719 78.964 77.5931 78.964 77.4712 78.9432C75.9084 78.6626 74.3362 78.8437 72.768 78.8458C72.2752 78.8458 71.7837 78.8741 71.2875 78.8651C70.5242 78.8513 69.7615 79.0891 68.9881 78.8444C68.8569 78.8029 68.6767 78.9356 68.5167 78.9771C68.2355 79.0496 67.9341 79.2114 67.6737 79.1609C67.0965 79.0469 66.6331 79.3414 66.1202 79.4685C65.4801 79.6282 64.8339 79.7996 64.1804 79.8584C63.5684 79.913 62.9443 79.7975 62.3276 79.8093C61.3841 79.8273 60.4474 79.575 59.5019 79.7533C59.4229 79.7685 59.3258 79.7733 59.2561 79.7409C58.7265 79.4934 58.2002 79.671 57.6679 79.7229C57.2212 79.7664 56.7425 79.895 56.33 79.624C55.9383 79.3669 55.5459 79.4056 55.1341 79.4934C54.4357 79.6427 53.7514 79.7084 53.0603 79.4029C52.8173 79.295 52.4885 79.2743 52.3037 79.5708C52.3037 79.6814 52.2702 79.7913 52.3097 79.8418C52.6874 80.3367 52.9452 80.9435 53.5525 81.2242C53.6971 81.2905 53.8397 81.4149 53.9261 81.5525C54.4129 82.3308 55.1321 82.8215 55.878 83.286C56.2677 83.5293 56.6795 83.745 57.0331 84.036C57.6772 84.5675 58.2712 85.1633 58.914 85.6976C59.3606 86.0688 59.8353 86.4137 60.3315 86.7088C60.7527 86.959 61.2221 87.1229 61.5944 87.2901C62.0028 88.114 62.26 88.8799 62.3684 89.6886C62.4729 90.4662 62.7876 91.1622 63.0943 91.8617C63.1773 92.0532 63.2871 92.2516 63.4344 92.3898C63.9212 92.8488 64.4074 93.3139 64.937 93.7176C65.9387 94.4814 67.0576 95.0302 68.1437 95.4974C68.7691 95.4124 69.2278 95.1408 69.6751 94.8208C70.3213 94.359 70.9909 93.9339 71.6457 93.4847C71.9189 93.2967 72.1767 93.0879 72.4921 92.8508C71.931 92.5267 71.4321 92.2419 70.9366 91.9516C70.2751 91.5645 69.7247 91.0516 69.3912 90.3376C68.8267 89.1239 67.9596 88.2827 66.7342 87.7857C65.6347 87.3392 64.7971 86.4876 63.9916 85.6278C63.2791 84.8682 63.2476 83.9447 63.5777 82.9992C63.6387 82.825 63.8369 82.6778 64.0049 82.5748C64.1395 82.4925 64.323 82.4711 64.4857 82.4656C65.851 82.4193 67.2083 82.2001 68.579 82.2928C68.8227 82.3087 69.0711 82.2534 69.3169 82.225C70.8791 82.0481 72.4305 81.8041 74.0175 81.9133C75.9774 82.0474 77.8938 81.6831 79.7787 81.1516C80.8172 80.8599 81.8464 80.5364 82.8823 80.2392C83.359 80.1024 83.8579 80.0339 84.3213 79.8625C84.8261 79.6759 85.2902 79.9033 85.7642 79.9752C86.2115 79.2923 86.6153 78.6495 87.0499 78.0288C87.1583 77.8725 87.3653 77.7889 87.526 77.6714C87.5065 77.6369 87.4677 77.6002 87.4704 77.567C87.4838 77.4323 87.4489 77.4039 87.38 77.5014C87.3726 77.518 87.4777 77.6168 87.53 77.6755ZM93.6896 57.2354C92.9678 57.4359 92.4301 57.8374 91.8984 58.237C90.665 59.1646 89.5361 60.2255 88.2699 61.1206C86.9575 62.0482 85.5895 62.8562 84.0896 63.3228C82.0647 63.9518 80.1289 64.8165 78.1388 65.5353C75.9466 66.3288 73.7141 66.9717 71.4884 67.6407C70.0581 68.0707 68.6151 68.455 67.1849 68.8849C66.3117 69.1468 65.4653 69.509 64.5841 69.7309C63.0554 70.1159 61.5468 70.5659 60.0422 71.0387C58.9729 71.3746 57.8821 71.6365 56.798 71.9206C55.4863 72.2635 54.3453 71.8771 53.3188 71.0255C52.9432 70.7131 52.7691 70.2866 52.6706 69.818C52.5903 69.4365 52.8133 69.1731 53.0135 68.8966C53.1112 68.7618 53.1641 68.5932 53.2438 68.4439C53.5076 67.9518 53.7828 67.49 54.3882 67.358C54.5663 67.3193 54.7102 67.1064 54.8676 66.9689C55.1515 66.7214 55.4274 66.4615 55.718 66.221C56.9634 65.1918 58.4031 64.5317 59.8882 63.9884C62.3055 63.103 64.7314 62.2425 67.1159 61.2637C68.1926 60.8214 69.2981 60.4536 70.3949 60.0659C72.4292 59.345 74.4868 58.6862 76.4956 57.8969C77.5315 57.4898 78.5587 57.028 79.5811 56.5767C80.9927 55.9532 82.3191 55.1625 83.7233 54.5335C83.874 54.4651 84.0173 54.3711 84.1505 54.2716C85.2881 53.4262 86.6448 52.9203 87.6398 51.8579C88.1935 51.7093 88.4875 51.1978 88.9093 50.8674C89.3473 50.5239 89.5749 49.9875 89.5548 49.42C89.5435 49.0945 89.3921 48.7558 89.2401 48.4586C89.0727 48.1302 89.1946 47.6989 88.9214 47.4066C88.7533 47.4625 88.6214 47.4778 88.5217 47.5441C88.1065 47.8227 87.6271 48.0494 87.3117 48.4226C86.9233 48.883 86.2792 48.744 85.9176 49.2134C85.7743 49.4007 85.5212 49.5272 85.2928 49.6122C84.9647 49.7345 84.7337 49.9357 84.5261 50.2239C83.9409 51.0402 83.1434 51.5386 82.2194 51.8835C81.1306 52.2899 80.0606 52.7654 79.1111 53.4649C78.4053 53.9833 77.6708 54.114 76.8833 53.7649C76.4307 53.5645 75.9941 53.5638 75.5548 53.7317C75.2709 53.8409 75.0218 53.8852 74.7205 53.7649C74.5491 53.6972 74.3168 53.7656 74.1179 53.8071C73.5869 53.9184 73.0572 53.9951 72.5129 53.9184C72.3528 53.8962 72.1593 53.8776 72.0254 53.9488C71.5507 54.1997 71.0525 54.1043 70.559 54.1174C70.2275 54.1264 69.8887 54.1271 69.5686 54.201C68.5977 54.4236 67.6275 54.6531 66.6713 54.9344C66.1858 55.0775 65.7057 55.1494 65.2062 55.1673C64.8366 55.1812 64.4462 55.1812 64.104 55.3021C62.9523 55.7072 61.7705 55.8682 60.5619 55.8952C60.1896 55.9042 59.7891 55.8661 59.4517 55.9926C58.5531 56.3286 57.6705 56.2567 56.7739 56.0424C56.6139 56.0051 56.4124 55.9249 56.2905 55.9878C55.7341 56.276 55.1495 56.0611 54.5917 56.0825C53.8217 56.1122 53.0309 55.9595 52.2709 55.7811C51.7519 55.6588 51.2765 55.3547 50.7174 55.6111C50.633 55.6498 50.4918 55.5565 50.3779 55.5212C49.867 55.365 49.322 55.345 48.8479 55.0346C48.6932 54.933 48.4274 54.9019 48.2526 54.9628C47.6681 55.1646 47.192 54.9489 46.7427 54.6165C46.4005 54.3635 46.0396 54.2086 45.6265 54.0967C44.5317 53.8002 43.5895 53.1981 42.8155 52.3431C42.5537 52.0549 42.2912 51.8385 41.9028 51.73C41.3865 51.5856 40.96 51.2807 40.5643 50.8626C39.9603 50.2253 39.2686 49.6737 38.4684 49.2818C38.0232 49.0634 37.6281 48.7351 37.2082 48.4606C36.0559 47.7072 34.9637 46.8488 33.656 46.3711C33.3078 46.244 32.9563 46.0615 32.6784 45.8168C32.063 45.2777 31.3084 45.0316 30.61 44.6666C30.0958 44.3971 29.5621 44.1676 29.0492 43.8973C28.8704 43.804 28.6722 43.6741 28.5764 43.5041C28.1841 42.8115 27.5399 42.4078 26.958 41.933C26.3038 41.3994 25.6978 40.827 25.3088 40.0446C25.197 39.82 25.0497 39.6057 24.8823 39.4218C24.5381 39.0403 24.2863 38.6193 24.0935 38.1307C23.9689 37.8134 23.8484 37.4042 23.3663 37.2542C23.1306 38.0215 22.5614 38.5267 22.1021 39.1191C21.9487 39.3168 21.8738 39.5773 21.7258 39.7812C21.4807 40.1186 21.464 40.4683 21.5209 40.8727C21.7579 42.5654 22.5949 43.9913 23.3917 45.436C23.4306 45.5071 23.5062 45.5555 23.5672 45.6129C23.9609 45.9882 24.3325 46.3946 24.7544 46.7319C25.5579 47.3727 26.0862 48.3894 27.1977 48.6196C27.3779 48.6569 27.5245 48.8726 27.6812 49.0115C28.3381 49.597 28.9882 50.1914 29.6518 50.7686C29.9659 51.0416 30.3201 51.2641 30.6294 51.5413C31.4095 52.2387 32.1267 53.0067 32.975 53.6253C33.4451 53.9695 33.883 54.3725 34.2888 54.7948C35.1345 55.674 35.9648 56.5691 36.7723 57.4856C37.7774 58.624 38.8427 59.694 39.9569 60.7177C40.2938 61.0266 40.5737 61.4054 40.8663 61.7635C41.1582 62.1229 41.2252 62.6171 41.0785 62.9779C40.796 63.6767 40.6741 64.4633 40.1324 65.0473C39.8779 65.3224 39.6858 65.6591 39.4514 65.9563C39.3496 66.0835 39.2224 66.1961 39.0898 66.2908C38.6492 66.6067 38.2341 66.9986 37.7459 67.1963C37.2176 67.4106 36.617 67.4327 36.0498 67.5509C35.4814 67.6698 34.9169 67.8073 34.3491 67.931C34.1877 67.9663 34.0223 67.9995 33.8582 68.0036C32.4996 68.0409 31.1423 68.0603 29.7831 68.0036C29.1637 67.9773 28.5865 67.6158 27.9504 67.7852C26.6152 67.5744 25.2546 67.5923 23.9468 67.1202C23.2705 66.8763 22.6358 66.5846 22.0887 66.1443C20.8821 65.1752 19.4558 64.7239 18.0497 64.2262C17.5816 64.061 17.0721 64.0168 16.5712 64.4446C16.5712 64.6534 16.5384 64.9112 16.5772 65.1572C16.6977 65.9155 16.8524 66.6682 16.9817 67.4251C17.06 67.884 17.0466 68.3741 17.1986 68.8033C17.4022 69.377 17.52 69.9549 17.5589 70.5534C17.591 71.0414 17.7651 71.4568 17.9954 71.7492C18.7641 72.0969 19.4478 72.3976 20.1241 72.7155C21.0629 73.1558 21.9976 73.6051 22.931 74.0571C23.4935 74.3295 24.0366 74.6481 24.6124 74.8852C26.2369 75.5536 27.9075 76.0644 29.6639 76.1653C31.0285 76.2441 32.3972 76.2565 33.7638 76.2966C34.6986 76.3236 35.1974 76.9049 35.0903 77.8449C35.0655 78.0571 35.0675 78.2762 35.0207 78.4822C34.8064 79.4201 34.4522 80.3298 33.5804 80.7597C32.6282 81.2304 31.7041 81.8953 30.5511 81.7515C29.1416 82.0412 27.7555 81.9458 26.3875 81.4979C26.111 81.4073 25.8297 81.3278 25.5465 81.2636C24.6887 81.0659 23.8209 81.0348 22.9498 81.1399C22.7081 81.1689 22.4563 81.22 22.3793 81.547C22.8152 82.4718 23.5819 83.1512 24.1778 83.9627C24.4758 84.3677 24.7912 84.7749 25.1648 85.1018C25.8378 85.6921 26.2616 86.4642 26.7324 87.1844C28.164 87.7574 29.5795 87.2024 31.0894 87.1871C30.91 87.0911 30.8136 87.0212 30.7071 86.986C30.5518 86.9349 30.3723 86.845 30.2304 86.8816C29.6203 87.0413 29.1952 86.686 28.7706 86.3536C28.5423 86.1752 28.3541 85.9354 28.1687 85.7059C27.7656 85.2076 27.9055 84.45 28.4834 84.2108C29.1342 83.9406 29.7991 83.6392 30.4835 83.5411C32.2867 83.2812 34.0986 83.0683 35.9266 83.1029C36.4235 83.1118 36.9237 83.0434 37.4165 83.0842C39.0269 83.2155 40.6373 83.3579 42.243 83.5418C43.5185 83.6869 44.7694 83.7947 46.0603 83.5445C46.898 83.3821 47.796 83.4796 48.6597 83.5549C49.4686 83.6254 49.9514 84.4624 49.6949 85.2552C49.6059 85.5324 49.4639 85.8227 49.2671 86.0252C48.8593 86.4469 48.4388 86.8775 47.9526 87.1906C46.4809 88.1389 44.8644 88.6055 43.1188 88.5854C42.1231 88.5737 41.1267 88.5965 40.1311 88.6C39.7146 88.602 39.3028 88.6117 38.9559 88.8896C38.9914 89.7197 38.9914 89.7197 38.2937 90.5236C37.4614 90.8056 36.6223 90.9949 35.7351 90.847C35.4954 90.8076 35.2383 90.8429 34.9932 90.8774C34.1314 91.0012 33.2717 91.1367 32.4132 91.279C32.351 91.2894 32.3028 91.389 32.1996 91.4989C32.7286 91.8327 33.2623 92.141 33.7658 92.4949C35.0843 93.4238 36.613 93.8468 38.0801 94.4102C38.4082 94.5367 38.8354 94.5221 39.1816 94.4316C39.7762 94.2754 40.3694 94.0611 40.9165 93.777C41.8472 93.2932 42.8161 92.9089 43.8165 92.6566C44.77 92.4168 45.7436 92.2453 46.7407 92.6462C47.9339 93.1245 49.1706 93.4874 50.3833 93.9139C51.7968 94.4116 53.1923 94.9514 54.4149 95.8707C54.8475 96.1962 55.2908 96.5059 55.7227 96.8315C56.0735 97.0962 56.4472 97.1563 56.8884 97.1439C58.4098 97.1003 59.9197 96.8943 61.4578 97.0222C62.6396 97.1204 63.8456 96.9047 65.0408 96.81C65.229 96.7948 65.4111 96.6849 65.5966 96.6192C65.5437 96.4679 65.539 96.367 65.4868 96.3193C64.4857 95.3806 63.2041 94.8 62.3423 93.6837C61.8348 93.5807 61.8113 93.072 61.5937 92.7278C61.3453 92.3359 61.0286 91.9619 60.8906 91.5299C60.6462 90.7662 60.4587 89.972 60.3536 89.175C60.2632 88.4887 59.909 88.0809 59.3419 87.8687C59.0305 87.7519 58.7258 87.6606 58.4452 87.4616C57.7991 87.0047 57.0733 86.6487 56.4907 86.1213C55.866 85.5552 55.0524 85.2939 54.4886 84.6504C54.0219 84.1182 53.286 83.8777 52.974 83.1727C52.1611 82.7137 51.6254 81.9313 50.9357 81.3292C50.4523 80.9076 50.2547 80.3816 50.1951 79.7637C50.1503 79.2992 50.09 78.8354 50.0257 78.2741C50.5433 77.755 51.1018 77.1945 51.7111 76.5828C52.2066 76.768 52.684 76.6927 53.1702 76.5441C53.5244 76.4362 53.8993 76.4653 54.267 76.6146C54.8113 76.8344 55.4321 76.9325 55.9637 76.8067C56.8469 76.5973 57.6893 76.8102 58.5296 76.8945C59.5889 77.0016 60.6596 77.126 61.6995 77.4253C62.0028 77.5124 62.355 77.4081 62.6852 77.406C63.6688 77.4011 64.6216 76.9643 65.622 77.1827C65.6957 77.1979 65.7888 77.1675 65.8624 77.1323C66.6559 76.7597 67.4969 76.9132 68.3185 76.9208C68.7002 76.9235 69.037 76.9491 69.3711 76.6809C69.5439 76.542 69.8385 76.5012 70.0715 76.5178C70.8603 76.5731 71.6444 76.5254 72.4318 76.4984C73.2575 76.4708 74.0951 76.4957 74.91 76.6208C75.4196 76.6996 75.8923 76.6795 76.3778 76.5758C77.3949 76.3588 78.4207 76.2392 79.4586 76.3243C79.7539 76.3485 80.0305 76.3574 80.307 76.2254C81.0831 75.8508 81.9214 75.9095 82.7423 75.8985C83.6088 75.886 84.4324 75.6123 85.2835 75.5114C85.4355 75.4934 85.5788 75.3732 85.7214 75.2923C86.0113 75.1271 86.2832 74.9211 86.5879 74.7953C87.2025 74.5396 87.5775 74.1048 87.85 73.4744C88.1714 72.7335 88.6341 72.0243 89.3386 71.6352C89.9968 71.2723 90.1514 70.729 90.2151 70.0641C90.2874 69.2996 90.3992 68.5386 90.4648 67.7734C90.4849 67.5398 90.5807 67.2654 90.3021 67.0207C90.0336 67.1507 89.7497 67.3117 89.449 67.4258C89.139 67.544 88.8143 67.6248 88.4922 67.7064C87.5373 67.9455 86.8584 67.405 86.8463 66.4055C86.8436 66.1484 86.8148 65.8913 86.8336 65.6362C86.9046 64.6465 87.305 63.7831 88.063 63.2067C88.8223 62.6302 89.67 62.1685 90.5124 61.7227C91.9741 60.9485 92.9705 59.7376 93.7285 58.2743C93.9039 57.9473 93.9668 57.6377 93.6896 57.2354ZM102.35 47.9215C101.815 48.3086 101.608 48.7786 101.376 49.223C101.037 49.87 100.641 50.4776 100.086 50.9344C99.5982 51.3353 99.0491 51.6588 98.3755 51.4045C97.5954 51.1086 97.345 50.7361 97.3389 49.8638C97.3376 49.6502 97.3255 49.4318 97.3597 49.223C97.6108 47.6637 97.9442 46.1306 98.6674 44.715C99.8044 42.4887 99.7368 40.2893 98.5047 38.121C98.2636 37.6966 98.03 37.3074 97.4461 37.5272C97.353 37.5625 97.2083 37.4775 97.0972 37.4263C96.7202 37.2515 96.3359 37.0876 95.9756 36.8803C95.3991 36.5485 94.7891 36.2465 94.2849 35.8165C93.7144 35.3306 93.2229 34.7383 92.7394 34.1542C92.4542 33.8093 92.1254 33.5943 91.7156 33.4748C90.8693 33.2273 90.1434 33.7706 90.0711 34.6871C90.0336 35.1716 90.0992 35.6237 90.3329 36.0481C90.8224 36.939 91.3279 37.821 91.7953 38.7237C92.3008 39.7004 93.0106 40.5395 93.3997 41.6074C93.7981 42.7009 93.8972 43.7591 93.6267 44.8671C93.4653 45.5286 93.2885 46.1901 93.0655 46.8322C92.6731 47.9609 92.1623 49.0585 91.2148 49.7794C90.4206 50.3842 89.8173 51.1314 89.3325 51.9692C88.5933 53.2486 87.3632 53.9011 86.2437 54.6766C85.6049 55.119 84.8616 55.4293 84.1612 55.7867C82.4276 56.6693 80.7222 57.6329 78.8205 58.1084C78.7006 58.1388 78.5935 58.2148 78.4756 58.2549C76.7842 58.8176 75.1022 59.4141 73.3974 59.9311C70.0996 60.9319 66.8186 61.9784 63.6306 63.3166C62.3644 63.8481 61.1069 64.408 59.8126 64.8538C58.1747 65.4178 56.7291 66.2639 55.4649 67.4811C54.8622 68.061 54.5006 68.7549 54.2643 69.5318C54.1839 69.7952 54.2515 70.1069 54.2515 70.3938C54.5134 70.5375 54.737 70.6468 54.9466 70.7802C55.5861 71.1866 56.2858 71.2329 56.9875 71.087C57.7161 70.9357 58.4332 70.7207 59.1483 70.5057C60.8551 69.9922 62.5579 69.4655 64.2614 68.9388C65.687 68.4978 67.1085 68.0396 68.5368 67.6076C70.0427 67.1514 71.5607 66.7346 73.0633 66.2666C74.4862 65.8236 75.8984 65.3432 77.3112 64.8669C78.5292 64.4564 79.7419 64.0285 80.9565 63.6076C81.5846 63.3892 82.2997 63.2958 82.816 62.915C83.4488 62.4491 84.1525 62.266 84.8302 61.9667C85.2446 61.7835 85.629 61.5236 86.02 61.2886C86.2704 61.1379 86.4961 60.9368 86.7573 60.8144C87.4436 60.4903 88.0302 60.0216 88.6288 59.5578C89.8193 58.6344 90.9864 57.6771 92.2419 56.8421C92.8339 56.4488 93.4613 56.3237 94.1329 56.3631C94.5634 56.388 94.8078 56.6728 94.842 57.1138C94.8848 57.6764 94.8279 58.2197 94.5748 58.7374C93.8537 60.2138 92.8841 61.4531 91.5047 62.3358C90.6597 62.8777 89.8461 63.4693 89.0078 64.0223C88.6783 64.2393 88.4319 64.4944 88.3449 64.9043C88.2859 65.1863 88.1815 65.4586 88.1058 65.7074C88.6683 66.2058 88.8022 66.3157 88.9723 66.286C89.2943 66.2279 89.668 66.2272 89.9211 66.0503C91.119 65.2139 92.3524 64.4322 93.5523 63.6027C95.2042 62.4623 96.7852 61.2133 98.4183 59.994C98.5623 59.2316 98.8067 58.4955 99.3136 57.91C100.541 56.4958 101.362 54.8224 102.159 53.1442C102.461 52.509 102.618 51.7563 102.662 51.0457C102.717 50.1555 102.591 49.2528 102.53 48.357C102.521 48.2443 102.441 48.1378 102.35 47.9215ZM28.3528 31.1281C28.1445 31.3134 27.9865 31.3949 27.9149 31.5276C27.5399 32.2126 27.0036 32.7372 26.4344 33.2432C26.123 33.5197 25.8565 33.8508 25.5827 34.1701C25.2646 34.5413 25.2311 34.9712 25.5304 35.3424C26.0246 35.9555 26.0413 36.8803 26.7739 37.3296C26.8033 37.3475 26.8074 37.4056 26.8281 37.4429C27.2788 38.2579 27.799 39.0071 28.555 39.5635C28.9313 39.8393 29.232 40.2036 29.2768 40.7151C29.315 41.145 29.5413 41.4021 29.9143 41.5804C30.5665 41.8922 31.0566 42.4071 31.5213 42.9677C31.893 43.4163 32.2954 43.8635 32.7601 44.198C33.7444 44.9058 34.8559 45.3986 35.9628 45.8507C37.3843 46.4313 38.824 46.9511 40.125 47.8012C40.2596 47.8897 40.4263 47.9243 40.5803 47.9816C41.2399 48.2305 41.8861 48.5353 42.5637 48.7067C43.0465 48.829 43.384 49.082 43.6706 49.4567C43.929 49.7953 44.1895 50.1188 44.6006 50.2799C45.1785 50.5073 45.747 50.7651 46.3235 50.9973C47.8656 51.618 49.4043 52.245 50.9545 52.8421C51.3361 52.988 51.7533 53.0841 52.1591 53.1013C52.609 53.1214 53.0771 53.0779 53.5143 52.9679C54.1545 52.8076 54.7491 52.9348 55.347 53.1242C55.5439 53.1864 55.7287 53.2907 55.9195 53.373C56.2711 53.5244 56.6072 53.5437 57.0016 53.4629C57.7696 53.306 58.5597 53.252 59.3311 53.5202C59.4845 53.5741 59.6505 53.6211 59.8106 53.6239C61.2589 53.6453 62.7073 53.6958 64.1536 53.6591C65.225 53.6322 66.2943 53.5009 67.361 53.393C67.6 53.3688 67.8297 53.2506 68.0634 53.1746C68.2602 53.111 68.4544 53.006 68.6546 52.988C70.0769 52.8656 71.4221 52.4108 72.699 51.815C73.7851 51.3084 74.9154 51.1881 76.055 51.0443C76.4407 50.996 76.7769 50.9213 77.0749 50.6538C77.3983 50.3628 77.7913 50.2025 78.2225 50.2515C78.633 50.2972 79.006 50.1644 79.2283 49.8652C79.6059 49.3564 80.0827 49.2306 80.6458 49.2576C81.0456 49.2756 81.3489 49.1097 81.6328 48.8201C82.0526 48.3922 82.5609 48.0998 83.1528 47.9948C83.4561 47.9409 83.6844 47.784 83.8753 47.5379C84.028 47.3395 84.2081 47.1646 84.4009 46.9524C85.0986 47.0727 85.6819 46.8425 86.2156 46.3649C86.622 46.002 87.1054 45.7498 87.6498 45.6316C87.927 45.5707 88.2056 45.4429 88.2926 45.0413C87.6358 42.8536 86.4954 40.9127 85.0551 39.2048C84.5938 39.1737 84.2958 39.4004 84.1358 39.6714C83.7936 40.2506 83.2532 40.5554 82.7537 40.9273C82.1531 41.3738 81.5658 41.8424 80.9498 42.2675C80.54 42.5502 80.0767 42.75 79.6635 43.0278C78.8252 43.5925 77.8998 43.9907 76.9617 44.2754C76.1662 44.518 75.3881 44.7876 74.6161 45.0917C74.2317 45.2431 73.8333 45.3606 73.4329 45.4594C72.1091 45.7878 70.7813 46.1002 69.4548 46.4188C69.2546 46.4665 69.045 46.4893 68.8555 46.564C67.2672 47.1875 65.6568 47.7017 63.9353 47.7224C63.7739 47.7245 63.6125 47.7895 63.4505 47.8213C62.9235 47.9243 62.3972 48.0376 61.8676 48.1233C61.0078 48.263 60.1433 48.3708 59.2849 48.5152C57.8761 48.7523 56.4699 48.6908 55.0892 48.3763C52.828 47.8607 50.5627 47.343 48.337 46.6898C46.8297 46.2474 45.3559 45.6654 43.8708 45.136C42.0608 44.4911 40.4357 43.4418 38.8561 42.3553C37.5176 41.4353 36.1643 40.5201 34.9463 39.4211C34.5419 39.0562 34.1073 38.7258 33.6848 38.3816C32.813 37.6696 31.9405 36.9605 31.283 36.0142C31.066 35.7018 30.8283 35.4032 30.5785 35.1177C30.0482 34.5102 29.5929 33.8584 29.2742 33.1015C29.0137 32.4815 28.7077 31.8822 28.3528 31.1281ZM82.5602 35.9347C82.1397 36.2624 81.7969 36.5789 81.4085 36.8188C80.9498 37.1022 80.469 37.3717 79.9655 37.5494C79.4559 37.7298 78.9604 37.897 78.5828 38.3166C78.5587 38.3436 78.5058 38.3539 78.4663 38.3539C77.7331 38.3456 77.1264 38.7714 76.4548 38.976C75.899 39.1447 75.3627 39.3098 74.8538 39.6361C74.3737 39.9451 73.7918 40.0722 73.2923 40.3923C72.768 40.7254 72.2109 41.0517 71.625 41.2196C71.104 41.3682 70.5945 41.4906 70.1278 41.7871C69.9222 41.9171 69.6731 41.9882 69.4347 42.0422C68.3078 42.2972 67.1675 42.4935 66.0526 42.7914C64.7931 43.1287 63.5061 43.0209 62.2359 43.1557C62.1568 43.164 62.0671 43.1495 61.9928 43.1184C60.9522 42.6795 59.8862 42.8557 58.8102 42.9075C58.1326 42.9393 57.4255 43.0976 56.7465 42.8281C56.6347 42.7838 56.4954 42.7679 56.3782 42.7894C55.491 42.9504 54.6614 42.6525 53.8177 42.4686C53.5358 42.4064 53.2485 42.358 52.9619 42.3366C52.4631 42.2979 51.9923 42.2157 51.5303 41.9717C51.1747 41.7837 50.7415 41.7546 50.3444 41.6475C50.1094 41.5846 49.8677 41.5321 49.6467 41.4298C49.2691 41.2576 48.9149 41.0268 48.5338 40.8616C48.195 40.7151 47.8053 40.6777 47.4886 40.4973C46.7741 40.0909 46.1179 39.5822 45.2649 39.4695C44.9997 39.435 44.764 39.1834 44.5089 39.0417C44.073 38.7984 43.6531 38.441 43.1884 38.3567C42.6246 38.2544 42.2744 37.8127 41.7468 37.6579C40.6486 37.3358 39.6275 36.8022 38.6974 36.1041C38.5341 35.981 38.3834 35.8324 38.2508 35.6755C37.9241 35.2898 37.6555 34.8378 37.2806 34.5143C36.9096 34.1943 36.7717 33.6448 36.2447 33.472C36.0927 33.4222 35.9394 33.1547 35.9092 32.9667C35.7954 32.2499 35.3843 31.7233 34.9483 31.2028C34.649 30.8434 34.3189 30.4736 34.3035 29.9849C34.2848 29.3987 33.6681 29.1969 33.5998 28.6647C33.573 28.4539 33.5455 28.2417 33.4933 28.0364C33.4029 27.6763 33.2931 27.3224 33.1632 26.8683C32.3958 27.4468 31.6419 27.9023 31.0292 28.5106C30.4721 29.0635 29.7663 29.49 29.384 30.2628C29.6471 31.1634 29.9076 32.0481 30.4513 32.8326C30.9314 33.5245 31.3285 34.2772 31.7691 34.9975C31.8555 35.1398 31.9586 35.2822 32.0831 35.3866C32.7875 35.9803 33.3447 36.7393 34.1093 37.2694C34.5178 37.5528 34.9015 37.8888 35.251 38.2475C36.1061 39.1295 37.1112 39.7971 38.1122 40.478C38.9753 41.0634 39.8244 41.6738 40.664 42.2945C41.7789 43.1191 42.9387 43.8317 44.2785 44.2174C45.5099 44.5713 46.7139 45.0288 47.9453 45.3813C49.2985 45.7698 50.6766 46.0656 52.0312 46.4479C53.1112 46.7534 54.2609 46.6753 55.3135 47.1328C55.5298 47.2268 55.803 47.1971 56.0508 47.1999C56.63 47.2075 57.2112 47.2255 57.7891 47.1916C58.6964 47.1384 59.6043 47.1854 60.513 47.0043C61.6854 46.77 62.8907 46.7105 64.0618 46.47C65.6019 46.1541 67.1735 45.964 68.6359 45.2929C69.1575 45.053 69.7347 44.9279 70.2978 44.7987C71.2641 44.5775 72.2397 44.3971 73.2099 44.1911C73.4108 44.1483 73.6077 44.0736 73.8012 44.0003C74.6094 43.6921 75.4203 43.3886 76.2231 43.0638C77.0494 42.7306 77.9694 42.6069 78.6451 41.9281C79.7445 41.5977 80.5159 40.7068 81.4875 40.1573C82.1082 39.3838 82.9445 38.9166 83.7641 38.4168C83.9644 38.2952 84.1083 38.0733 84.3092 37.8659C83.7153 37.21 83.1615 36.6003 82.5602 35.9347ZM78.0109 31.1191C77.8007 31.3542 77.6715 31.4641 77.5824 31.603C77.1097 32.3384 76.4655 32.8679 75.7102 33.2515C74.3442 33.9448 73.0191 34.7466 71.5306 35.135C70.9005 35.2995 70.2918 35.5394 69.5927 35.4986C69.041 35.4668 68.4464 35.6838 67.9174 35.9071C66.8769 36.346 65.7821 36.561 64.7047 36.8471C64.4288 36.9204 64.1308 36.9107 63.8422 36.9259C63.184 36.9612 62.5231 36.9605 61.8669 37.0268C61.2529 37.089 60.6516 37.322 60.0228 37.1568C59.3787 37.4436 58.7533 37.2197 58.1239 37.0828C58.0435 37.0655 57.9571 37.0828 57.8754 37.0745C57.0498 36.995 56.2229 36.9294 55.4013 36.8243C55.0377 36.778 54.6573 36.7054 54.3312 36.5451C53.8404 36.3052 53.3355 36.1352 52.8206 35.9686C52.3111 35.8041 51.7834 35.6099 51.3502 35.3009C50.3444 34.5827 49.1894 34.2226 48.0939 33.7222C47.0788 33.2584 46.0054 32.9059 45.2401 32.0046C44.0027 31.2512 43.1228 30.0934 42.1519 29.0476C41.6135 28.4677 41.2051 27.7585 40.7364 27.1088C40.0668 26.1819 39.823 25.0532 39.3456 23.9873C38.8354 24.0661 38.2582 24.0302 37.8002 24.2548C37.081 24.6074 36.3217 24.7974 35.5892 25.0829C35.3822 25.1638 35.2249 25.3801 35.0515 25.5294C35.1198 25.7209 35.1445 25.8494 35.2082 25.9538C35.8804 27.0659 36.3257 28.3149 37.223 29.2964C37.6113 29.7208 37.8156 30.3035 37.9093 30.9208C38.0754 32.0087 38.6352 32.9045 39.4119 33.6337C40.1752 34.3505 40.9761 35.0265 41.787 35.6838C42.0387 35.8877 42.3695 36.0543 42.6815 36.0965C43.1342 36.1566 43.4375 36.3812 43.7248 36.7096C43.9511 36.9695 44.2484 37.1512 44.6013 37.1319C45.1437 37.1022 45.5468 37.418 45.9633 37.6876C46.3101 37.9122 46.6268 38.1901 46.9489 38.4389C47.4652 38.432 47.9352 38.4065 48.3631 38.8087C48.6149 39.0451 49.0474 39.0783 49.3996 39.1979C49.6327 39.2767 49.8737 39.3354 50.1034 39.4225C51.0308 39.7723 51.9388 40.187 52.9465 40.2492C53.1065 40.2589 53.2759 40.3079 53.4206 40.3819C54.1699 40.7655 55.0022 40.8678 55.7796 41.1443C56.549 41.418 57.3484 41.1954 58.1078 41.4215C59.3405 41.1899 60.5759 41.2971 61.8147 41.3489C62.3865 41.3731 62.9664 41.2514 63.5402 41.1795C64.0331 41.1173 64.5219 40.9673 65.012 40.968C66.4376 40.9708 67.8076 40.742 69.1147 40.1379C69.339 40.0349 69.5941 39.9292 69.8305 39.9402C70.482 39.9713 71.0384 39.7895 71.5306 39.352C71.6163 39.2767 71.7623 39.2677 71.8828 39.2428C73.1724 38.9774 74.1895 38.5793 75.204 37.9482C75.4149 37.8169 75.6399 37.7063 75.8595 37.5867C76.4407 37.2667 76.9958 36.8665 77.6105 36.648C78.2507 36.4199 78.7823 35.9976 79.391 35.755C80.1289 35.4613 80.613 34.9422 81.0335 34.3616C80.8259 33.7215 80.5447 33.19 80.0258 32.8762C79.4733 32.543 79.0602 32.0868 78.6765 31.574C78.5373 31.3901 78.2808 31.2989 78.0109 31.1191ZM34.0176 76.9816C33.7812 76.9567 33.6205 76.9235 33.4598 76.9256C32.673 76.9346 31.8863 76.9422 31.1008 76.9691C29.2675 77.0313 27.4435 76.9249 25.7039 76.3028C24.3399 75.8148 23.0221 75.1886 21.6903 74.6073C20.6256 74.1428 19.5931 73.585 18.5037 73.2C17.8997 72.9872 17.3955 72.6657 16.8631 72.3402C16.0509 71.8446 15.4978 71.0953 14.9427 70.3668C14.1077 69.2692 13.2882 68.1564 12.8864 66.7671C12.5931 65.7517 12.5027 64.7667 12.7371 63.7431C12.8415 63.2896 13.0062 62.8383 13.0317 62.38C13.0846 61.4421 13.092 60.4958 12.5114 59.6753C12.2222 59.2668 12.028 59.159 11.5673 59.2841C11.3323 59.3477 11.1066 59.4611 10.889 59.5772C10.131 59.9829 9.88592 60.7902 9.50425 61.4897C9.65625 62.0462 9.26319 62.4429 9.12258 62.9143C9.02615 63.2364 8.94312 63.5737 8.92705 63.9069C8.90696 64.3313 8.9853 64.7605 8.97928 65.187C8.9612 66.4968 9.30939 67.7098 9.85511 68.8745C10.0165 69.2201 10.1966 69.5574 10.364 69.9009C10.8461 70.8956 10.5555 71.9566 9.69575 72.7929C9.44131 73.0404 8.93576 73.0569 8.65184 72.8309C8.49181 72.7031 8.35656 72.533 8.23268 72.3651C7.62803 71.5488 7.11109 70.6792 6.71335 69.7323C6.54997 69.3418 6.35044 68.963 6.13751 68.598C6.00694 68.3741 5.81074 68.2061 5.43576 68.3036C5.37014 68.587 5.25966 68.9056 5.22685 69.2332C5.1157 70.3309 5.44045 71.3538 5.85828 72.3305C6.0759 72.8378 6.29017 73.3404 6.47163 73.8643C6.88009 75.0386 7.39769 76.1777 8.26415 77.0604C9.50157 78.3198 10.8341 79.4823 12.4029 80.291C13.7569 80.9892 15.1845 81.3666 16.7105 80.9878C17.5153 80.7887 18.3222 80.6401 19.1471 80.5399C20.4616 80.3809 21.7673 80.1286 23.0703 79.8839C23.5732 79.7899 24.0607 79.8051 24.5501 79.9116C24.9941 80.0077 25.4293 80.1445 25.8733 80.2378C27.8781 80.6581 29.8755 80.6968 31.8655 80.1252C33.2516 79.727 34.0176 78.6695 34.0176 76.9816ZM16.5143 63.0484C17.1685 63.0767 17.7135 63.0442 18.2405 63.1327C19.9004 63.4127 21.407 64.1315 22.7951 65.0708C23.9863 65.8761 25.2412 66.2915 26.6587 66.2238C27.2841 66.1934 27.8995 66.2486 28.4733 66.5611C28.6072 66.6343 28.7954 66.6689 28.9414 66.6371C29.2722 66.5638 29.5882 66.5873 29.923 66.6088C30.91 66.6737 31.9017 66.7221 32.8893 66.6924C34.4294 66.6468 35.8851 66.0876 37.3904 65.8132C37.7279 65.751 37.981 65.5436 38.2006 65.2616C38.6666 64.6617 39.1742 64.0949 39.6382 63.4928C40.2917 62.6475 40.2188 61.9604 39.4574 61.2769C38.7108 60.6064 37.9689 59.9297 37.2417 59.2371C36.4208 58.4561 35.64 57.6294 34.8024 56.867C33.9694 56.1094 33.2281 55.2544 32.3316 54.5591C30.7808 53.3578 29.3713 51.9719 27.7575 50.8494C27.1435 50.423 26.5476 49.9522 26.0172 49.4235C25.6858 49.0938 25.3583 48.7751 24.9646 48.5381C23.9542 47.9291 23.063 47.1978 22.4362 46.1472C21.7492 44.9957 20.8955 43.9326 20.7314 42.2723C19.802 43.605 19.494 44.9535 19.0896 46.2765C19.2489 46.4907 19.4873 46.6732 19.5308 46.8951C19.6313 47.4059 19.9219 47.7266 20.3169 47.9796C20.6096 48.1669 20.854 48.3673 20.8874 48.7627C20.8961 48.8643 21.0327 48.9562 21.1138 49.0489C21.5858 49.5873 22.072 50.1133 22.528 50.6663C23.0636 51.316 23.5732 51.9871 24.2622 52.4841C24.7731 52.8525 25.1012 53.4608 25.5914 53.8078C26.3132 54.3199 26.9734 54.8819 27.6089 55.4936C27.8131 55.6899 28.1111 55.7804 28.3555 55.9346C28.5296 56.0445 28.7787 56.1482 28.8349 56.312C29.017 56.8518 29.4181 57.1172 29.8574 57.3764C30.0322 57.4794 30.1882 57.6425 30.3067 57.8133C30.7633 58.472 31.2187 59.1334 31.6419 59.815C32.1133 60.5746 31.832 62.0676 31.1437 62.6344C30.4533 63.2032 29.6625 63.3657 28.8115 63.2171C28.4044 63.1459 28.0106 62.9344 27.6062 62.9178C26.9533 62.8915 26.3869 62.6482 25.8626 62.3054C25.347 61.9687 24.7745 61.7856 24.21 61.8457C23.0496 61.9687 21.9126 61.5305 20.7575 61.7586C20.6444 61.7807 20.5138 61.7192 20.3933 61.6902C19.2965 61.4303 18.2198 61.1276 17.431 60.209C17.3218 60.0811 17.2066 59.9387 17.0654 59.8668C16.8665 59.7659 16.6589 59.5254 16.3696 59.8288C16.4179 60.8442 16.1855 61.9093 16.5143 63.0484ZM73.3599 27.3929C73.2086 27.5394 73.0124 27.6562 72.9213 27.8318C72.6937 28.2693 72.3234 28.5465 71.9444 28.7953C71.248 29.2536 70.5342 29.6877 69.8057 30.0879C69.1066 30.4729 68.3614 30.7134 67.5464 30.6768C67.357 30.6678 67.0884 30.7238 66.9847 30.8572C66.7369 31.1724 66.4403 31.1952 66.1001 31.189C65.8135 31.1834 65.5102 31.1606 65.2444 31.2463C64.7864 31.3949 64.3458 31.3652 63.8971 31.2595C63.5697 31.1827 63.2342 31.0984 62.9275 31.2788C62.3088 31.6424 61.6453 31.5636 60.9897 31.5152C60.2512 31.4606 59.5153 31.3023 58.7774 31.2954C57.7 31.285 56.6688 30.8924 55.5867 30.9526C55.4294 30.9609 55.264 30.8841 55.106 30.8364C53.8337 30.4556 52.6244 29.9275 51.4627 29.2653C50.8875 28.937 50.2534 28.7186 49.6474 28.4477C49.3849 28.3302 49.0689 28.2659 48.878 28.0717C48.5727 27.7613 48.2198 27.574 47.8542 27.3715C47.5683 27.2125 47.2723 26.9996 47.0895 26.7314C46.4018 25.7229 45.5736 24.8078 45.1296 23.6314C44.997 23.2809 44.8002 22.9561 44.608 22.5704C43.8995 22.7992 43.1938 22.7287 42.5316 23.0287C41.9001 23.3155 41.1542 23.2782 40.5763 23.6549C40.6165 25.1976 41.5874 26.2738 42.1994 27.5138C43.3511 28.7366 44.3509 30.1024 45.6372 31.2028C46.5445 31.9797 47.5254 32.5596 48.6283 32.9515C49.9936 33.4367 51.2906 34.1342 52.7383 34.3616C52.7778 34.3678 52.8133 34.3961 52.8501 34.4155C54.0942 35.0521 55.4542 35.1537 56.7974 35.3431C57.6498 35.4626 58.5142 35.4364 59.3619 35.5732C60.3342 35.7308 61.2911 36.0149 62.2774 35.6403C62.4588 35.5718 62.6878 35.6299 62.8941 35.6389C64.2206 35.6935 65.5303 35.679 66.8132 35.2034C67.3536 35.003 67.9228 34.8952 68.4404 34.6104C68.6894 34.4735 68.9901 34.4065 69.2747 34.3733C70.3099 34.253 71.3036 33.9206 72.231 33.4962C73.8467 32.7573 75.4517 31.9541 76.7501 30.6581C76.8874 30.5213 76.9724 30.3298 77.0949 30.1446C76.3878 29.264 75.4658 28.7532 74.6877 28.0703C74.3456 27.7675 73.9913 27.4551 73.3599 27.3929ZM48.7682 84.5032C48.0491 84.4341 47.3179 84.4915 46.584 84.62C46.0135 84.7209 45.4289 84.741 44.8598 84.8502C44.1158 84.9926 43.3793 84.846 42.64 84.8433C41.9825 84.8398 41.3129 84.8011 40.6721 84.6636C40.0333 84.5274 39.361 84.4832 38.7704 84.1452C37.3676 83.9876 35.9628 83.9095 34.5533 84.0401C34.0585 84.0857 33.5656 84.1355 33.0721 84.1894C31.8361 84.3242 30.602 84.4721 29.4416 84.9718C29.3123 85.0278 29.2159 85.1668 29.0887 85.2808C29.5869 85.858 30.142 86.0743 30.8042 86.0315C31.2582 86.0011 31.7128 85.9699 32.1675 85.9596C32.4132 85.954 32.6677 85.954 32.9034 86.0176C33.4049 86.1545 33.6112 86.7061 33.3105 87.1256C33.1438 87.3592 32.9248 87.5756 32.6864 87.7283C31.8856 88.2405 30.9843 88.3788 30.0616 88.3781C29.2333 88.376 28.405 88.3283 27.5774 88.3256C26.6996 88.3235 25.8431 88.2426 25.0182 87.8936C24.5247 87.6855 24.0212 87.4747 23.5015 87.3668C22.9371 87.2493 22.3492 87.248 21.7713 87.1989C21.6073 87.1851 21.4405 87.1636 21.2778 87.1768C20.8881 87.2072 20.631 87.6378 20.7595 88.0249C20.7863 88.1058 20.8017 88.197 20.8486 88.264C21.2832 88.8792 21.6869 89.5248 22.1731 90.0936C22.7221 90.7385 23.4607 90.9977 24.3004 90.9397C24.6285 90.9175 24.9599 90.9397 25.2901 90.9293C25.9925 90.9072 26.6975 90.9086 27.3959 90.8422C28.9166 90.6971 30.4004 90.2077 31.9506 90.3093C32.0309 90.3155 32.1193 90.3003 32.1943 90.2685C33.1866 89.8517 34.2372 89.9568 35.2577 89.9796C36.0331 89.9948 36.7248 89.8621 37.3931 89.5096C37.4212 89.4211 37.4701 89.343 37.4701 89.2628C37.462 87.8631 38.1229 87.6343 39.3048 87.6032C39.4708 87.5991 39.6376 87.6191 39.8016 87.6046C40.0889 87.5791 40.3922 87.586 40.6587 87.4913C41.1823 87.3047 41.7113 87.2832 42.2523 87.2957C43.2494 87.3198 44.241 87.2494 45.22 87.0448C46.5043 86.7759 47.648 86.2202 48.5794 85.2463C48.7575 85.0582 48.8914 84.8467 48.7682 84.5032ZM50.9632 21.6228C50.0284 21.6857 49.2021 21.5958 48.4749 21.8308C47.727 22.072 46.8726 21.7956 46.2023 22.3769C46.3885 22.9423 46.6021 23.4842 46.9442 23.9818C47.5469 24.8569 48.1274 25.7388 49.1285 26.1861C49.1653 26.2019 49.1914 26.2414 49.2249 26.2662C50.3411 27.1206 51.6341 27.5629 52.9586 27.8919C53.3663 27.9928 53.7688 28.0081 54.0634 28.3668C54.2676 28.6142 54.5569 28.6301 54.8549 28.6599C55.7133 28.7456 56.5972 28.7608 57.4174 29.0006C58.1232 29.2073 58.7961 29.2329 59.4992 29.1769C60.2826 29.1147 61.0687 28.9847 61.8495 29.0089C62.6691 29.0345 63.486 29.3172 64.2862 28.899C64.3538 28.8638 64.4516 28.8769 64.5326 28.8845C65.4185 28.9709 66.2407 28.7103 67.0831 28.4725C67.6235 28.3205 68.1571 27.9873 68.7685 28.1615C68.8743 28.1912 69.0343 28.1532 69.1247 28.0834C69.8291 27.5394 70.7029 27.3431 71.4368 26.8655C71.6712 26.7127 71.8607 26.4874 72.1245 26.2469C71.5714 25.8916 71.1174 25.5073 70.5971 25.2909C70.0407 25.0601 69.6115 24.4961 68.9191 24.5279C68.7115 24.8866 68.5395 25.226 68.3272 25.5349C68.1859 25.7402 68.0178 25.9649 67.8089 26.0713C67.2585 26.3533 66.7537 26.7183 66.1215 26.8517C64.9323 27.1033 63.7391 27.1807 62.5352 27.0971C61.0098 26.9906 59.5461 26.4612 58.0167 26.363C57.3257 25.8992 56.5121 25.9531 55.7501 25.7865C54.4705 25.5066 53.3643 24.8375 52.3727 24.0033C51.6636 23.4081 51.1607 22.6112 50.9632 21.6228ZM64.5152 83.6358C64.5045 83.8065 64.4516 83.9834 64.4911 84.1334C64.6123 84.5869 64.8393 84.976 65.17 85.3188C66.0907 86.2734 67.1896 86.9431 68.366 87.4837C69.0383 87.7926 69.5244 88.2696 69.87 88.9331C70.1043 89.3838 70.3621 89.8261 70.648 90.2436C71.3029 91.2009 72.2256 91.7297 73.3372 91.8832C73.7885 91.9461 74.223 91.8755 74.6154 91.5341C75.0232 91.1788 75.5107 90.9217 75.9546 90.6093C76.122 90.4918 76.2867 90.3501 76.2311 90.0985C76.1615 90.0418 76.1059 89.9761 76.0356 89.9416C75.5207 89.6872 74.9154 89.5427 74.5063 89.1667C73.8173 88.5322 73.0506 88.0539 72.2711 87.5715C71.9966 87.4014 71.7422 87.1484 71.7261 86.7496C71.7997 86.5167 71.8727 86.2734 71.9531 86.0328C72.158 85.4163 72.9253 84.8509 73.5541 84.8488C75.1029 84.8447 76.2459 84.6373 77.4786 84.1127C78.5634 83.6503 79.7224 83.5051 80.8628 83.4395C81.6221 83.3952 82.3252 83.3683 82.9633 82.9093C83.0972 82.8132 83.2579 82.751 83.4126 82.695C83.9443 82.5043 84.334 82.1255 84.6567 81.6721C84.7411 81.5532 84.7538 81.3797 84.8014 81.2228C84.194 81.0431 83.6751 81.1744 83.1508 81.3182C81.9134 81.6555 80.6773 81.9969 79.4312 82.2983C77.5322 82.7593 75.6098 82.9349 73.6512 82.8554C72.5885 82.8125 71.5118 82.8236 70.4532 83.1049C69.6965 83.3068 68.9138 83.3793 68.1176 83.3537C66.9257 83.3171 65.7271 83.3144 64.5152 83.6358ZM68.0493 23.9279C67.7145 23.7579 67.4052 23.6286 67.1253 23.4517C66.8447 23.2747 66.5769 23.104 66.2575 22.9823C64.473 22.3022 62.6349 21.817 60.7949 21.338C60.5558 21.2751 60.3041 21.2288 60.0583 21.2309C58.5497 21.2419 57.0512 21.0062 55.5298 21.1368C54.5067 21.2246 53.4701 21.2606 52.4396 21.311C52.293 21.3179 52.151 21.4299 51.9749 21.5073C52.2782 22.4287 52.6532 23.225 53.5431 23.5795C54.5462 23.9797 55.5593 24.3558 56.5811 24.7C57.1281 24.8845 57.71 24.955 58.2651 25.1175C59.5789 25.5038 60.9147 25.7596 62.278 25.8294C62.7307 25.8522 63.2007 25.714 63.6387 25.7941C64.4917 25.9504 65.2732 25.7057 66.0827 25.5253C67.0101 25.3193 67.5766 24.711 68.0493 23.9279ZM16.379 56.6195C17.1136 57.1138 17.8327 57.4863 18.1749 58.284C18.2191 58.389 18.3476 58.4685 18.4521 58.5314C19.0936 58.9206 19.7217 59.3401 20.3899 59.6726C20.868 59.909 21.3916 60.0935 21.9139 60.1813C22.7302 60.3175 23.5618 60.3645 24.3888 60.4253C25.4615 60.5041 26.5422 60.5594 27.5781 60.8697C28.3421 61.0985 29.0358 60.9879 29.7951 60.6741C29.7007 60.2269 29.615 59.8184 29.5661 59.5862C29.1182 59.1867 28.8148 58.9047 28.5001 58.6379C28.2771 58.4492 28.0635 58.2079 27.8031 58.1181C27.3618 57.9674 26.9915 57.7172 26.5971 57.4829C26.1384 57.2091 25.5726 57.1234 25.1227 56.8394C24.6352 56.5332 24.3774 55.9512 23.8779 55.6063C22.9873 54.989 22.1349 54.3123 21.4412 53.4442C21.1017 53.0184 20.7187 52.6189 20.3069 52.2671C20.0049 52.0099 19.8067 51.712 19.6413 51.3602C19.3192 50.6697 18.9784 49.9889 18.6369 49.3074C18.5545 49.1422 18.4166 49.0682 18.1983 49.1733C18.0544 49.7615 17.905 50.3739 17.7651 50.9476C18.1401 51.477 18.4501 51.9851 18.8277 52.4316C19.2884 52.9762 19.7056 53.5679 20.3035 53.9847C20.6437 54.2232 20.9269 54.548 21.2457 54.8217C21.6956 55.2081 21.845 55.739 21.9052 56.2995C21.9635 56.8483 21.5242 57.319 20.9926 57.2734C20.2781 57.2119 19.6072 56.9949 19.0414 56.518C18.592 56.1399 18.1548 55.7459 17.7135 55.3574C17.5877 55.2461 17.4752 55.1183 17.3412 55.0174C17.1926 54.9047 17.1491 54.6393 16.831 54.6835C16.6911 55.2828 16.5464 55.9007 16.379 56.6195ZM40.3025 95.2203C40.9232 95.4172 41.3424 95.5997 41.7789 95.6764C42.4351 95.7926 43.0532 95.9965 43.6558 96.2799C43.9176 96.4015 44.2022 96.4879 44.4848 96.5398C45.7014 96.7609 46.9215 96.9552 48.1388 97.1729C50.1704 97.5372 52.1972 97.3015 54.3815 97.2068C54.0219 96.9241 53.8096 96.7181 53.5639 96.5709C52.818 96.123 52.0827 95.6633 51.2377 95.4062C50.4509 95.1677 49.7137 94.7447 48.9202 94.5484C48.2285 94.3763 47.5562 94.151 46.9462 93.8192C46.361 93.5013 45.7912 93.392 45.1664 93.4729C44.8028 93.5206 44.4305 93.5773 44.085 93.6996C42.9943 94.0867 41.9149 94.5049 40.8328 94.9161C40.719 94.959 40.6185 95.0371 40.3025 95.2203ZM76.1133 86.8201C76.0698 86.9127 76.0249 87.0053 75.9814 87.0987C76.4119 87.5313 76.7334 88.0677 77.253 88.4154C77.7686 88.761 78.2165 88.6746 78.6712 88.1908C79.2678 87.5583 79.8711 86.9321 80.4637 86.2962C80.5005 86.2554 80.4684 86.1469 80.4684 86.0695C79.9186 86.0066 79.916 86.0004 79.4379 86.2492C78.6913 86.639 77.9252 86.872 77.0668 86.7317C76.7615 86.6812 76.4314 86.7862 76.1133 86.8201ZM20.5868 56.0611C20.718 55.6975 20.5265 55.4742 20.2969 55.2973C19.4692 54.6565 18.7769 53.8831 18.1287 53.0585C17.9372 52.8145 17.7115 52.5857 17.4356 52.4053C17.1531 53.1553 17.1417 53.1774 17.4457 53.617C18.1802 54.6738 19.1873 55.4037 20.2547 56.0548C20.3397 56.106 20.481 56.0611 20.5868 56.0611ZM78.546 29.4112C79.3361 29.5404 80.0499 29.2847 80.773 29.1285C80.8654 29.1091 81.0054 28.9398 80.992 28.8631C80.9659 28.7193 80.8614 28.4884 80.763 28.4732C80.0726 28.364 79.3763 28.2679 78.6799 28.2382C78.3672 28.2244 78.0478 28.3737 77.6902 28.4587C77.9051 28.9329 78.2225 29.1928 78.546 29.4112Z" fill="#171717"/>
<path fill-rule="evenodd" clip-rule="evenodd" d="M13.6757 53.4788C13.6978 53.8216 13.7105 53.9066 13.7065 53.9916C13.6469 55.3215 13.067 56.1413 11.8751 56.5892C11.4807 56.7371 11.1573 56.6327 10.8701 56.3168C10.3096 55.7003 10.3177 54.998 10.6123 54.2909C10.9899 53.3855 11.4801 52.5526 12.3171 52.0017C12.9331 51.5966 13.4226 51.7881 13.6804 52.4779C13.8424 52.912 13.6717 53.3177 13.6757 53.4788ZM12.6921 52.9935C12.1296 53.2735 12.0178 53.3917 11.6937 53.9903C11.4881 54.3677 11.3455 54.7582 11.4158 55.1978C11.4265 55.2648 11.5082 55.363 11.5631 55.3685C11.6783 55.3803 11.8397 55.3823 11.91 55.3118C12.5086 54.7022 12.9552 54.02 12.7604 53.0841C12.753 53.0502 12.7155 53.0233 12.6921 52.9935Z" fill="#171717"/>
<path fill-rule="evenodd" clip-rule="evenodd" d="M83.0793 70.5832C81.9483 71.4016 80.9192 72.1888 79.6925 72.6381C79.3048 72.7805 78.9184 72.965 78.5809 73.2042C77.7352 73.8042 76.7576 74.0357 75.7894 74.1601C74.8198 74.2852 73.806 74.3454 72.8532 73.9424C72.6242 73.8463 72.3992 73.7316 72.191 73.5961C71.9278 73.4247 71.8327 73.0977 71.9472 72.8074C72.1046 72.4079 72.2706 71.9614 72.6523 71.7796C73.4056 71.4202 73.9942 70.8113 74.7642 70.4567C75.5651 70.0883 76.3846 69.8298 77.2123 69.5685C77.7647 69.3943 78.3231 69.2346 78.8642 69.0273C79.807 68.6665 80.7759 68.5089 81.7776 68.5331C81.8184 68.5338 81.8613 68.5262 81.9015 68.5331C82.9273 68.7384 83.2755 69.0024 83.1543 70.0316C83.1349 70.1996 83.1081 70.3682 83.0793 70.5832ZM73.4445 72.5213C73.5034 72.6201 73.5168 72.6754 73.5462 72.6872C74.5894 73.1102 75.6695 73.0867 76.6974 72.7418C78.1464 72.2538 79.5063 71.5197 80.8824 70.8437C81.2486 70.6633 81.568 70.373 81.8914 70.109C82.0923 69.9452 82.01 69.5782 81.7582 69.4925C81.6082 69.442 81.4361 69.3998 81.2848 69.4254C80.8777 69.4945 80.4645 69.5657 80.0748 69.7019C79.2941 69.9735 78.4624 70.0869 77.7245 70.4906C76.777 70.4899 75.9829 70.9986 75.1452 71.3435C74.5017 71.6096 73.9312 72.0222 73.4445 72.5213Z" fill="#171717"/>
<path fill-rule="evenodd" clip-rule="evenodd" d="M41.2779 72.1066C41.2779 71.7534 41.2478 71.4112 41.2859 71.078C41.3408 70.5894 41.5297 70.1878 42.0305 69.9908C42.2542 69.9037 42.4263 69.6867 42.6345 69.547C42.8749 69.3853 43.1267 69.1213 43.3764 69.1178C44.1893 69.1047 44.8248 68.4024 45.6403 68.5206C46.3762 68.6277 47.1168 68.7591 47.8286 68.9747C48.4674 69.1676 48.7834 69.7703 49.0272 70.3585C49.1698 70.7027 48.7828 71.4741 48.4272 71.6725C47.919 71.9559 47.4061 72.2344 46.8784 72.477C46.3073 72.7404 45.7046 72.871 45.0692 72.8441C44.5723 72.8233 44.0721 72.8053 43.5786 72.8523C42.7517 72.9332 42.0198 72.7397 41.2779 72.1066ZM45.3946 72.0353C46.2276 71.9254 47.082 71.5246 47.8882 71.0006C48.0355 70.9039 48.0362 70.5624 47.9103 70.4117C47.7449 70.2147 47.536 70.0177 47.2755 70.1511C46.9514 70.3184 46.6467 70.3011 46.316 70.2161C46.1171 70.165 45.9028 70.1214 45.7026 70.1463C44.6232 70.2797 43.6543 70.7525 42.6981 71.2495C42.6405 71.2792 42.5776 71.4098 42.597 71.4603C42.6365 71.5639 42.7222 71.7133 42.8032 71.725C43.6208 71.837 44.4418 71.9254 45.3946 72.0353Z" fill="#171717"/>
</svg>
